<svg width="16" height="16" viewBox="0 0 16 16" fill="none" xmlns="http://www.w3.org/2000/svg">
<g clip-path="url(#clip0_2372_715)">
<path fill-rule="evenodd" clip-rule="evenodd" d="M9.63595 14.9564H2.77579C2.58291 14.9564 2.39792 14.8798 2.26153 14.7434C2.12514 14.607 2.04852 14.422 2.04852 14.2291V7.68367H-0.133301L7.37724 0.856038C7.51114 0.734204 7.68567 0.666687 7.8667 0.666687C8.04773 0.666687 8.22226 0.734204 8.35615 0.856038L15.8667 7.68367H13.6849V8.09723C13.2565 7.78538 12.7637 7.55653 12.2303 7.43432V6.34331L7.8667 2.37677L3.50306 6.34331V13.5019H7.97157C8.37732 14.1296 8.95409 14.6364 9.63595 14.9564ZM13.5317 14.6756C13.5133 14.6993 13.4933 14.7219 13.4719 14.7434C13.3552 14.86 13.2031 14.9329 13.0409 14.9516C13.2114 14.871 13.3754 14.7786 13.5317 14.6756Z" fill="#FCFCFD"/>
<path d="M14.9752 14.1991H14.9712L13.8312 13.0391C14.1105 12.5859 14.2604 12.0648 14.2645 11.5324C14.2658 10.8941 14.0555 10.2733 13.6663 9.76721C13.2772 9.26116 12.7313 8.89841 12.114 8.73573C11.4967 8.57305 10.8429 8.61962 10.2549 8.86816C9.6669 9.1167 9.1779 9.55318 8.86444 10.1093C8.55097 10.6654 8.43072 11.3097 8.52252 11.9415C8.61432 12.5732 8.91298 13.1567 9.37176 13.6005C9.83054 14.0444 10.4235 14.3237 11.058 14.3946C11.6924 14.4655 12.3324 14.3241 12.8779 13.9924L14.0245 15.1457C14.1495 15.2707 14.3191 15.3409 14.4959 15.3409C14.6726 15.3409 14.8422 15.2707 14.9672 15.1457H14.9712C15.0339 15.084 15.0838 15.0105 15.118 14.9294C15.1522 14.8483 15.17 14.7613 15.1704 14.6732C15.1708 14.5852 15.1537 14.498 15.1202 14.4166C15.0867 14.3353 15.0374 14.2613 14.9752 14.1991ZM11.4285 13.2264C11.0989 13.2264 10.7767 13.1287 10.5026 12.9455C10.2285 12.7624 10.0149 12.5021 9.88872 12.1976C9.76258 11.893 9.72957 11.5579 9.79388 11.2346C9.85819 10.9113 10.0169 10.6143 10.25 10.3812C10.4831 10.1481 10.7801 9.98941 11.1034 9.92511C11.4267 9.8608 11.7618 9.8938 12.0663 10.0199C12.3709 10.1461 12.6312 10.3597 12.8143 10.6338C12.9974 10.9079 13.0952 11.2301 13.0952 11.5597C13.0952 12.0018 12.9196 12.4257 12.607 12.7383C12.2945 13.0508 11.8705 13.2264 11.4285 13.2264Z" fill="#FCFCFD"/>
</g>
<defs>
<clipPath id="clip0_2372_715">
<rect width="16" height="16" fill="white"/>
</clipPath>
</defs>
</svg>
