<svg width="16" height="16" viewBox="0 0 16 16" fill="none" xmlns="http://www.w3.org/2000/svg">
<path fill-rule="evenodd" clip-rule="evenodd" d="M4.45798 10.9977C4.94556 11.2059 5.46994 11.3142 6.0001 11.3161C6.4579 11.3173 6.91176 11.238 7.34108 11.0824C7.44169 9.45702 8.51298 8.09442 9.98229 7.56725C9.99439 7.4353 10.0004 7.30235 10.0001 7.1688C10.0001 5.7568 8.66677 3.5668 7.05877 1.06013L6.94677 0.885468C6.89555 0.80775 6.84641 0.730033 6.79842 0.654152C6.79208 0.644113 6.78575 0.634105 6.77944 0.624134C6.7001 0.498134 6.62344 0.377468 6.54677 0.268134C6.48216 0.184677 6.3993 0.117121 6.30455 0.0706429C6.20979 0.0241651 6.10565 0 6.0001 0C5.89456 0 5.79042 0.0241651 5.69566 0.0706429C5.6009 0.117121 5.51805 0.184677 5.45344 0.268134C5.37677 0.377468 5.3001 0.498134 5.22077 0.624134C5.2145 0.634043 5.20821 0.643988 5.20188 0.653996C5.15371 0.730175 5.10323 0.810009 5.04077 0.905468C3.4381 3.3828 2.0001 5.7228 2.0001 7.1688C1.99241 8.26073 2.40875 9.31304 3.16144 10.1041C3.52953 10.4857 3.9704 10.7895 4.45798 10.9977ZM3.33344 7.1688C3.33344 6.0588 4.9821 3.44947 6.0001 1.87747C7.0261 3.47747 8.66677 6.05547 8.66677 7.1688C8.6684 7.91459 8.38647 8.63312 7.8781 9.1788C7.6361 9.43336 7.34477 9.63593 7.02188 9.77416C6.699 9.91239 6.35133 9.98338 6.0001 9.9828C5.64852 9.98054 5.30094 9.90794 4.97784 9.76929C4.65474 9.63064 4.36265 9.42873 4.11877 9.17547C3.60701 8.63352 3.32548 7.91415 3.33344 7.1688ZM7.80484 6.84473C7.92987 6.96975 8.0001 7.13932 8.0001 7.31613C8.00785 7.58088 7.96141 7.84441 7.86364 8.09057C7.76587 8.33672 7.61883 8.5603 7.43155 8.74758C7.24427 8.93486 7.02069 9.0819 6.77454 9.17967C6.52838 9.27744 6.26485 9.32388 6.0001 9.31613C5.82329 9.31702 5.65337 9.24763 5.52772 9.12323C5.40207 8.99883 5.33099 8.82961 5.3301 8.6528C5.32922 8.47599 5.39861 8.30607 5.52301 8.18042C5.64741 8.05477 5.81663 7.98369 5.99344 7.9828C6.08361 7.9923 6.17477 7.98164 6.26033 7.95159C6.34588 7.92154 6.42368 7.87286 6.48812 7.80906C6.55255 7.74527 6.60201 7.66795 6.63291 7.5827C6.6638 7.49745 6.67537 7.4064 6.66677 7.31613C6.66677 7.13932 6.73701 6.96975 6.86203 6.84473C6.98706 6.71971 7.15663 6.64947 7.33344 6.64947C7.51025 6.64947 7.67982 6.71971 7.80484 6.84473Z" fill="#FCFCFD"/>
<path d="M14.9752 14.1991H14.9712L13.8312 13.0391C14.1105 12.5859 14.2604 12.0648 14.2645 11.5324C14.2658 10.8941 14.0555 10.2733 13.6663 9.76721C13.2772 9.26116 12.7313 8.89841 12.114 8.73573C11.4967 8.57305 10.8429 8.61962 10.2549 8.86816C9.6669 9.1167 9.1779 9.55318 8.86444 10.1093C8.55097 10.6654 8.43072 11.3097 8.52252 11.9415C8.61432 12.5732 8.91298 13.1567 9.37176 13.6005C9.83054 14.0444 10.4235 14.3237 11.058 14.3946C11.6924 14.4655 12.3324 14.3241 12.8779 13.9924L14.0245 15.1457C14.1495 15.2707 14.3191 15.3409 14.4959 15.3409C14.6726 15.3409 14.8422 15.2707 14.9672 15.1457H14.9712C15.0339 15.084 15.0838 15.0105 15.118 14.9294C15.1522 14.8483 15.17 14.7613 15.1704 14.6732C15.1708 14.5852 15.1537 14.498 15.1202 14.4166C15.0867 14.3353 15.0374 14.2613 14.9752 14.1991ZM11.4285 13.2264C11.0989 13.2264 10.7767 13.1287 10.5026 12.9455C10.2285 12.7624 10.0149 12.5021 9.88872 12.1976C9.76258 11.893 9.72957 11.5579 9.79388 11.2346C9.85819 10.9113 10.0169 10.6143 10.25 10.3812C10.4831 10.1481 10.7801 9.98941 11.1034 9.92511C11.4267 9.8608 11.7618 9.8938 12.0663 10.0199C12.3709 10.1461 12.6312 10.3597 12.8143 10.6338C12.9974 10.9079 13.0952 11.2301 13.0952 11.5597C13.0952 12.0018 12.9196 12.4257 12.607 12.7383C12.2945 13.0508 11.8705 13.2264 11.4285 13.2264Z" fill="#FCFCFD"/>
</svg>
