<svg width="24" height="24" viewBox="0 0 24 24" fill="none" xmlns="http://www.w3.org/2000/svg">
<path d="M17.9583 2.83333H17.5V2.375C17.5 2.01033 17.3551 1.66059 17.0973 1.40273C16.8394 1.14487 16.4897 1 16.125 1V1C15.7603 1 15.4106 1.14487 15.1527 1.40273C14.8949 1.66059 14.75 2.01033 14.75 2.375V2.83333H9.25V2.375C9.25 2.01033 9.10513 1.66059 8.84727 1.40273C8.58941 1.14487 8.23967 1 7.875 1V1C7.51033 1 7.16059 1.14487 6.90273 1.40273C6.64487 1.66059 6.5 2.01033 6.5 2.375V2.83333H6.04167C4.70453 2.83333 3.42217 3.36451 2.47667 4.31C1.53117 5.2555 1 6.53787 1 7.875L1 17.9583C1 19.2955 1.53117 20.5778 2.47667 21.5233C3.42217 22.4688 4.70453 23 6.04167 23H17.9583C19.2955 23 20.5778 22.4688 21.5233 21.5233C22.4688 20.5778 23 19.2955 23 17.9583V7.875C23 6.53787 22.4688 5.2555 21.5233 4.31C20.5778 3.36451 19.2955 2.83333 17.9583 2.83333V2.83333ZM17.9583 20.25H6.04167C5.43388 20.25 4.85098 20.0086 4.42121 19.5788C3.99144 19.149 3.75 18.5661 3.75 17.9583V10.1667H20.25V17.9583C20.25 18.5661 20.0086 19.149 19.5788 19.5788C19.149 20.0086 18.5661 20.25 17.9583 20.25Z" fill="#777E91"/>
</svg>
