<svg width="24" height="24" viewBox="0 0 24 24" fill="none" xmlns="http://www.w3.org/2000/svg">
<path d="M18.1765 4.67767L15.8913 1.71408C15.72 1.4919 15.5 1.31198 15.2483 1.18818C14.9966 1.06439 14.7198 1 14.4393 1H9.56075C9.28038 1.00014 9.00378 1.06459 8.75221 1.18839C8.50065 1.31218 8.28083 1.49202 8.10967 1.71408L5.8235 4.67767C4.52644 4.73385 3.30104 5.28822 2.40252 6.22533C1.504 7.16245 1.00162 8.41006 1 9.70833L1 17.9583C1.00146 19.295 1.5331 20.5765 2.47828 21.5217C3.42346 22.4669 4.70498 22.9985 6.04167 23H17.9583C19.295 22.9985 20.5765 22.4669 21.5217 21.5217C22.4669 20.5765 22.9985 19.295 23 17.9583V9.70833C22.9984 8.41006 22.496 7.16245 21.5975 6.22533C20.699 5.28822 19.4736 4.73385 18.1765 4.67767ZM20.25 17.9583C20.25 18.5661 20.0086 19.149 19.5788 19.5788C19.149 20.0086 18.5661 20.25 17.9583 20.25H6.04167C5.43388 20.25 4.85098 20.0086 4.42121 19.5788C3.99144 19.149 3.75 18.5661 3.75 17.9583V9.70833C3.75 9.10055 3.99144 8.51765 4.42121 8.08788C4.85098 7.65811 5.43388 7.41667 6.04167 7.41667H17.9583C18.5661 7.41667 19.149 7.65811 19.5788 8.08788C20.0086 8.51765 20.25 9.10055 20.25 9.70833V17.9583Z" fill="#777E91"/>
<path d="M11.9999 8.79175C11.0028 8.79175 10.028 9.08744 9.19892 9.64142C8.36982 10.1954 7.72362 10.9828 7.34203 11.904C6.96044 12.8253 6.86059 13.839 7.05513 14.817C7.24966 15.795 7.72983 16.6933 8.43492 17.3984C9.14001 18.1035 10.0383 18.5837 11.0163 18.7782C11.9943 18.9727 13.008 18.8729 13.9293 18.4913C14.8505 18.1097 15.6379 17.4635 16.1919 16.6344C16.7459 15.8053 17.0416 14.8306 17.0416 13.8334C17.0401 12.4967 16.5085 11.2152 15.5633 10.27C14.6181 9.32484 13.3366 8.7932 11.9999 8.79175V8.79175ZM11.9999 16.1251C11.5467 16.1251 11.1036 15.9907 10.7267 15.7389C10.3499 15.487 10.0561 15.1291 9.88269 14.7104C9.70924 14.2916 9.66386 13.8309 9.75228 13.3863C9.84071 12.9418 10.059 12.5335 10.3795 12.213C10.7 11.8925 11.1083 11.6742 11.5528 11.5858C11.9974 11.4974 12.4581 11.5427 12.8769 11.7162C13.2956 11.8896 13.6536 12.1834 13.9054 12.5602C14.1572 12.9371 14.2916 13.3802 14.2916 13.8334C14.2916 14.4412 14.0501 15.0241 13.6204 15.4539C13.1906 15.8836 12.6077 16.1251 11.9999 16.1251V16.1251Z" fill="#777E91"/>
</svg>
