<svg width="14" height="13" viewBox="0 0 14 13" fill="none" xmlns="http://www.w3.org/2000/svg">
<path d="M12.6569 10.5849L8.88562 6.81371L12.6569 3.04247C12.9069 2.79242 13.0474 2.45329 13.0474 2.09966C13.0474 1.74604 12.9069 1.4069 12.6569 1.15685C12.4068 0.906806 12.0677 0.76633 11.714 0.76633C11.3604 0.76633 11.0213 0.906806 10.7712 1.15685L7 4.92809L3.22876 1.15685C2.97872 0.906806 2.63958 0.76633 2.28595 0.76633C1.93233 0.76633 1.59319 0.906806 1.34315 1.15685C1.0931 1.4069 0.952622 1.74604 0.952622 2.09966C0.952622 2.45329 1.0931 2.79242 1.34315 3.04247L5.11438 6.81371L1.34315 10.5849C1.0931 10.835 0.952621 11.1741 0.952621 11.5278C0.952621 11.8814 1.0931 12.2205 1.34315 12.4706C1.59319 12.7206 1.93233 12.8611 2.28595 12.8611C2.63958 12.8611 2.97872 12.7206 3.22876 12.4706L7 8.69933L10.7712 12.4706C11.0213 12.7206 11.3604 12.8611 11.714 12.8611C12.0677 12.8611 12.4068 12.7206 12.6569 12.4706C12.9069 12.2205 13.0474 11.8814 13.0474 11.5278C13.0474 11.1741 12.9069 10.835 12.6569 10.5849Z" fill="#EF466F"/>
</svg>
