<svg width="24" height="24" viewBox="0 0 24 24" fill="none" xmlns="http://www.w3.org/2000/svg">
<path d="M12 1C18.0742 1 23 5.3758 23 10.7779C22.9991 12.3984 22.3549 13.9523 21.2089 15.0981C20.0629 16.2439 18.5089 16.8878 16.8884 16.8884H14.7258C13.7116 16.8884 12.8921 17.7079 12.8921 18.7221C12.8921 19.1863 13.0758 19.6142 13.3563 19.9321C13.65 20.2621 13.8337 20.69 13.8337 21.1663C13.8337 22.1816 12.99 23 12 23C5.9258 23 1 18.0742 1 12C1 5.9258 5.9258 1 12 1ZM10.6921 18.7221C10.6917 18.1923 10.7957 17.6675 10.9983 17.178C11.2008 16.6884 11.4979 16.2435 11.8726 15.8689C12.2472 15.4942 12.6921 15.1971 13.1817 14.9946C13.6712 14.792 14.196 14.688 14.7258 14.6884H16.8884C17.9253 14.6878 18.9195 14.2758 19.6529 13.5429C20.3863 12.8099 20.7988 11.8159 20.8 10.779C20.8 6.6529 16.9148 3.2 12 3.2C9.72913 3.19793 7.54538 4.0738 5.90532 5.64448C4.26525 7.21516 3.29587 9.35904 3.19984 11.6279C3.10382 13.8967 3.88858 16.1148 5.39006 17.8185C6.89154 19.5221 8.99348 20.5794 11.2564 20.7692C10.8881 20.1502 10.6932 19.4435 10.6921 18.7232V18.7221ZM7.05 12C6.61239 12 6.19271 11.8262 5.88327 11.5167C5.57384 11.2073 5.4 10.7876 5.4 10.35C5.4 9.91239 5.57384 9.49271 5.88327 9.18327C6.19271 8.87384 6.61239 8.7 7.05 8.7C7.48761 8.7 7.90729 8.87384 8.21673 9.18327C8.52616 9.49271 8.7 9.91239 8.7 10.35C8.7 10.7876 8.52616 11.2073 8.21673 11.5167C7.90729 11.8262 7.48761 12 7.05 12V12ZM16.95 12C16.5124 12 16.0927 11.8262 15.7833 11.5167C15.4738 11.2073 15.3 10.7876 15.3 10.35C15.3 9.91239 15.4738 9.49271 15.7833 9.18327C16.0927 8.87384 16.5124 8.7 16.95 8.7C17.3876 8.7 17.8073 8.87384 18.1167 9.18327C18.4262 9.49271 18.6 9.91239 18.6 10.35C18.6 10.7876 18.4262 11.2073 18.1167 11.5167C17.8073 11.8262 17.3876 12 16.95 12ZM12 8.7C11.5624 8.7 11.1427 8.52616 10.8333 8.21673C10.5238 7.90729 10.35 7.48761 10.35 7.05C10.35 6.61239 10.5238 6.19271 10.8333 5.88327C11.1427 5.57384 11.5624 5.4 12 5.4C12.4376 5.4 12.8573 5.57384 13.1667 5.88327C13.4762 6.19271 13.65 6.61239 13.65 7.05C13.65 7.48761 13.4762 7.90729 13.1667 8.21673C12.8573 8.52616 12.4376 8.7 12 8.7Z" fill="#777E91"/>
</svg>
