<svg width="24" height="24" viewBox="0 0 24 24" fill="none" xmlns="http://www.w3.org/2000/svg">
<path d="M22.9789 11.3195C22.8461 9.17685 22.0893 7.11985 20.8016 5.4021C19.5139 3.68435 17.7517 2.38094 15.7323 1.65253C13.7128 0.924127 11.5244 0.802568 9.43667 1.30284C7.34897 1.80311 5.45329 2.90334 3.98329 4.46791C2.5133 6.03249 1.53326 7.99301 1.16397 10.1078C0.794686 12.2226 1.0523 14.3993 1.90505 16.3694C2.7578 18.3396 4.16843 20.0172 5.96303 21.1954C7.75764 22.3736 9.85778 23.0009 12.0046 23H17.9419C19.2773 22.9983 20.5575 22.4671 21.5017 21.5228C22.446 20.5785 22.9772 19.2983 22.9789 17.963V11.4056V11.3195ZM20.2315 17.963C20.2315 18.5702 19.9902 19.1525 19.5609 19.5819C19.1315 20.0113 18.5491 20.2525 17.9419 20.2525H12.0046C10.841 20.2518 9.69062 20.0059 8.62846 19.5308C7.5663 19.0556 6.61622 18.3619 5.84015 17.495C5.06065 16.6286 4.47539 15.6056 4.12363 14.4946C3.77187 13.3835 3.66173 12.2101 3.8006 11.053C4.01972 9.22887 4.83953 7.52946 6.13087 6.22254C7.4222 4.91561 9.11166 4.07548 10.9331 3.83449C11.2894 3.79001 11.6482 3.76769 12.0073 3.76763C13.927 3.76214 15.7875 4.4319 17.2633 5.65973C18.1236 6.37436 18.8301 7.25593 19.3403 8.2512C19.8504 9.24648 20.1536 10.3348 20.2315 11.4505V17.963Z" fill="#777E91"/>
<path d="M9.69991 11.0946H12.4474C12.8117 11.0946 13.1611 10.9499 13.4188 10.6923C13.6764 10.4347 13.8211 10.0852 13.8211 9.72091C13.8211 9.35657 13.6764 9.00715 13.4188 8.74953C13.1611 8.4919 12.8117 8.34717 12.4474 8.34717H9.69991C9.33557 8.34717 8.98616 8.4919 8.72853 8.74953C8.4709 9.00715 8.32617 9.35657 8.32617 9.72091C8.32617 10.0852 8.4709 10.4347 8.72853 10.6923C8.98616 10.9499 9.33557 11.0946 9.69991 11.0946Z" fill="#777E91"/>
<path d="M16.1107 12.9258H9.69991C9.33557 12.9258 8.98616 13.0705 8.72853 13.3281C8.4709 13.5858 8.32617 13.9352 8.32617 14.2995C8.32617 14.6639 8.4709 15.0133 8.72853 15.2709C8.98616 15.5285 9.33557 15.6733 9.69991 15.6733H16.1107C16.475 15.6733 16.8245 15.5285 17.0821 15.2709C17.3397 15.0133 17.4844 14.6639 17.4844 14.2995C17.4844 13.9352 17.3397 13.5858 17.0821 13.3281C16.8245 13.0705 16.475 12.9258 16.1107 12.9258Z" fill="#777E91"/>
</svg>
