<svg width="24" height="24" viewBox="0 0 24 24" fill="none" xmlns="http://www.w3.org/2000/svg">
<path fill-rule="evenodd" clip-rule="evenodd" d="M4 5.5L9.5 12L8.5 1L12.5 10L16 1V10L19 5.5L16 16.5L22.5 12L15.5 22C14.8333 23.1667 12.7 24.8 9.5 22C8.61734 21.2277 7.68903 20.3361 6.77592 19.4115C6.59383 19.2271 6.41234 19.0413 6.23194 18.855C5.74807 18.3551 5.27204 17.8507 4.81314 17.3549C4.71596 17.2499 4.61955 17.1453 4.524 17.0412C3.02423 15.4073 1.73557 13.899 1 13L7.5 16.5L4 5.5ZM9.9067 18.2913C10.4394 18.8072 10.9669 19.2973 11.4755 19.7423C12.0479 20.2431 12.4443 20.4325 12.6512 20.5022C12.7616 20.5394 12.8258 20.5457 12.8531 20.546C12.8558 20.5441 12.8594 20.5416 12.8637 20.5381C12.8876 20.5191 12.9008 20.5009 12.9012 20.5012C12.9012 20.5012 12.9013 20.5009 12.9012 20.5012C12.945 20.4252 12.992 20.3515 13.0423 20.2796L14.0765 18.8022C13.1819 18.0554 12.7952 16.849 13.1057 15.7106L13.9463 12.6284C13.5327 12.8561 13.0631 12.9875 12.571 12.9992C12.4902 13.0011 12.4099 12.9997 12.3302 12.9952C12.0547 13.778 11.4593 14.432 10.6585 14.7673C10.4914 14.8372 10.3207 14.8911 10.1484 14.9293L10.3588 15.5904C10.6559 16.5243 10.475 17.5279 9.9067 18.2913ZM12.8456 20.5505C12.8457 20.5505 12.8461 20.5502 12.847 20.5498Z" fill="#777E91"/>
</svg>
