<svg width="32" height="32" viewBox="0 0 32 32" fill="none" xmlns="http://www.w3.org/2000/svg">
<rect y="32" width="32" height="32" rx="16" transform="rotate(-90 0 32)" fill="#EF466F"/>
<path d="M15.9998 13.8789L12.1168 9.99992C11.8306 9.74808 11.4592 9.61468 11.0781 9.62684C10.697 9.63901 10.3349 9.79583 10.0653 10.0654C9.79573 10.335 9.63891 10.6971 9.62674 11.0782C9.61458 11.4593 9.74797 11.8307 9.99982 12.1169L13.8788 15.9999L9.98782 19.8899C9.84849 20.0293 9.73796 20.1947 9.66256 20.3767C9.58715 20.5588 9.54834 20.7539 9.54834 20.9509C9.54834 21.148 9.58715 21.3431 9.66256 21.5251C9.73796 21.7072 9.84849 21.8726 9.98782 22.0119C10.1272 22.1513 10.2926 22.2618 10.4746 22.3372C10.6567 22.4126 10.8518 22.4514 11.0488 22.4514C11.2459 22.4514 11.441 22.4126 11.623 22.3372C11.8051 22.2618 11.9705 22.1513 12.1098 22.0119L15.9998 18.1209L19.8818 21.9999C20.0178 22.152 20.1834 22.2748 20.3685 22.3608C20.5536 22.4467 20.7542 22.4939 20.9582 22.4997C21.1621 22.5054 21.3651 22.4694 21.5547 22.394C21.7443 22.3185 21.9165 22.2052 22.0608 22.0609C22.2051 21.9166 22.3184 21.7444 22.3939 21.5548C22.4693 21.3652 22.5053 21.1622 22.4996 20.9583C22.4938 20.7543 22.4466 20.5537 22.3607 20.3686C22.2747 20.1835 22.1519 20.0179 21.9998 19.8819L18.1208 15.9999L21.9998 12.1219C22.2812 11.8405 22.4393 11.4589 22.4393 11.0609C22.4393 10.663 22.2812 10.2813 21.9998 9.99992C21.7184 9.71853 21.3368 9.56044 20.9388 9.56044C20.5409 9.56044 20.1592 9.71853 19.8778 9.99992L15.9998 13.8789Z" fill="#FCFCFD"/>
</svg>
