<svg width="24" height="24" viewBox="0 0 24 24" fill="none" xmlns="http://www.w3.org/2000/svg">
<path d="M4.2 7.6V20.8H19.6V7.6H4.2ZM4.2 5.4H19.6V3.2H4.2V5.4ZM20.7 23H3.1C2.80826 23 2.52847 22.8841 2.32218 22.6778C2.11589 22.4715 2 22.1917 2 21.9V2.1C2 1.80826 2.11589 1.52847 2.32218 1.32218C2.52847 1.11589 2.80826 1 3.1 1H20.7C20.9917 1 21.2715 1.11589 21.4778 1.32218C21.6841 1.52847 21.8 1.80826 21.8 2.1V21.9C21.8 22.1917 21.6841 22.4715 21.4778 22.6778C21.2715 22.8841 20.9917 23 20.7 23ZM6.4 9.8H10.8V14.2H6.4V9.8ZM6.4 16.4H17.4V18.6H6.4V16.4ZM13 10.9H17.4V13.1H13V10.9Z" fill="#777E91"/>
</svg>
