<svg width="24" height="24" viewBox="0 0 24 24" fill="none" xmlns="http://www.w3.org/2000/svg">
<path d="M15.8881 10.2576L15.732 10.1015C14.9965 9.39233 14.0925 8.88209 13.1053 8.6189C9.91027 7.76383 6.84168 9.57399 5.97012 12.8283C5.92286 13.0042 5.89758 13.202 5.85582 13.6977C5.68656 15.7529 5.20297 17.2861 3.8775 18.8413C6.36139 19.8173 9.30469 20.5053 11.5424 20.5053C12.8726 20.5036 14.1651 20.0637 15.2201 19.2535C16.275 18.4433 17.0336 17.308 17.3784 16.0233C17.6492 15.0154 17.6542 13.9545 17.393 12.9441C17.1318 11.9336 16.6133 11.0081 15.8881 10.2576V10.2576ZM13.5075 6.45264L18.9358 2.23113C19.1471 2.06695 19.4111 1.98552 19.6782 2.00212C19.9453 2.01871 20.1972 2.13218 20.3866 2.32126L23.6783 5.61186C23.8676 5.80131 23.9813 6.0534 23.9979 6.32075C24.0145 6.5881 23.9329 6.8523 23.7684 7.06372L19.548 12.4909C19.8456 13.7047 19.8634 14.9703 19.6002 16.192C19.337 17.4137 18.7997 18.5597 18.0287 19.5433C17.2578 20.5269 16.2734 21.3225 15.1499 21.87C14.0264 22.4174 12.7932 22.7024 11.5435 22.7034C7.69346 22.7034 2.74766 21.0526 0 19.404C4.37428 16.1068 3.34885 14.1175 3.84673 12.2601C5.00954 7.91879 9.1684 5.38325 13.5064 6.45264H13.5075ZM17.2586 8.51779C17.3301 8.58703 17.4015 8.65847 17.4707 8.731L18.7182 9.97734L21.4384 6.48012L19.5194 4.56115L16.0222 7.28134L17.2586 8.51779V8.51779Z" fill="#777E91"/>
</svg>
