<svg width="24" height="24" viewBox="0 0 24 24" fill="none" xmlns="http://www.w3.org/2000/svg">
<path d="M1.90005 2H21.7C21.9918 2 22.2716 2.11589 22.4779 2.32218C22.6842 2.52847 22.8 2.80826 22.8 3.1V20.7C22.8 20.9917 22.6842 21.2715 22.4779 21.4778C22.2716 21.6841 21.9918 21.8 21.7 21.8H1.90005C1.60831 21.8 1.32852 21.6841 1.12223 21.4778C0.915941 21.2715 0.800049 20.9917 0.800049 20.7V3.1C0.800049 2.80826 0.915941 2.52847 1.12223 2.32218C1.32852 2.11589 1.60831 2 1.90005 2V2ZM20.6 6.6618L11.8792 14.4718L3.00005 6.6376V19.6H20.6V6.6618ZM3.56215 4.2L11.8671 11.5282L20.0523 4.2H3.56215Z" fill="#9757D7"/>
</svg>
