<svg width="24" height="24" viewBox="0 0 24 24" fill="none" xmlns="http://www.w3.org/2000/svg">
<path d="M22.5727 0V13.7151C22.5724 15.5137 22.1006 17.2807 21.2043 18.84C20.308 20.3993 19.0185 21.6963 17.4644 22.6017C15.9104 23.507 14.1461 23.9891 12.3476 23.9998C10.5491 24.0105 8.77918 23.5495 7.21447 22.6627C5.64975 21.7759 4.3449 20.4943 3.43007 18.9458C2.51525 17.3973 2.02242 15.636 2.00075 13.8376C1.97908 12.0392 2.42932 10.2665 3.30657 8.69642C4.18382 7.12633 5.45741 5.81369 7.00031 4.88944L14.5722 0.517746V3.68365L22.5727 0ZM20.2868 3.56822L12.2863 7.25302V4.4757L8.39696 6.72156C7.19663 7.38885 6.18838 8.35401 5.46933 9.52407C4.75028 10.6941 4.34467 12.0296 4.29157 13.402L4.28585 13.7151C4.28483 15.8139 5.10857 17.829 6.57948 19.3261C8.0504 20.8232 10.0507 21.6824 12.1492 21.7183C14.2476 21.7543 16.2762 20.9643 17.7976 19.5185C19.319 18.0727 20.2113 16.087 20.2823 13.9894L20.2868 13.7151V3.56822ZM12.2863 8.00049C13.802 8.00049 15.2555 8.60257 16.3272 9.67427C17.3989 10.746 18.001 12.1995 18.001 13.7151C18.001 15.2307 17.3989 16.6843 16.3272 17.756C15.2555 18.8277 13.802 19.4298 12.2863 19.4298C10.7707 19.4298 9.31719 18.8277 8.24549 17.756C7.17379 16.6843 6.57171 15.2307 6.57171 13.7151C6.57171 12.1995 7.17379 10.746 8.24549 9.67427C9.31719 8.60257 10.7707 8.00049 12.2863 8.00049ZM12.2863 10.2863C11.377 10.2863 10.5049 10.6476 9.86183 11.2906C9.21881 11.9336 8.85756 12.8058 8.85756 13.7151C8.85756 14.6245 9.21881 15.4966 9.86183 16.1396C10.5049 16.7827 11.377 17.1439 12.2863 17.1439C13.1957 17.1439 14.0678 16.7827 14.7109 16.1396C15.3539 15.4966 15.7151 14.6245 15.7151 13.7151C15.7151 12.8058 15.3539 11.9336 14.7109 11.2906C14.0678 10.6476 13.1957 10.2863 12.2863 10.2863Z" fill="#777E91"/>
</svg>
