<svg width="18" height="20" viewBox="0 0 18 20" fill="none" xmlns="http://www.w3.org/2000/svg">
<path d="M17.8106 0V11.4293C17.8104 12.9281 17.4172 14.4006 16.6702 15.7C15.9233 16.9994 14.8487 18.0802 13.5537 18.8347C12.2586 19.5892 10.7884 19.9909 9.28964 19.9998C7.79088 20.0088 6.31598 19.6246 5.01205 18.8856C3.70812 18.1466 2.62074 17.0786 1.85839 15.7882C1.09603 14.4978 0.685337 13.03 0.667279 11.5313C0.64922 10.0326 1.02443 8.55543 1.75547 7.24702C2.48651 5.93861 3.54784 4.84475 4.83358 4.07454L11.1435 0.431455V3.06971L17.8106 0ZM15.9057 2.97352L9.23861 6.04418V3.72975L5.99746 5.6013C4.99719 6.15737 4.15697 6.96168 3.55776 7.93673C2.95855 8.91178 2.62054 10.0247 2.5763 11.1683L2.57154 11.4293C2.57068 13.1783 3.25713 14.8575 4.48289 16.1051C5.70866 17.3527 7.37558 18.0686 9.1243 18.0986C10.873 18.1286 12.5635 17.4702 13.8313 16.2654C15.0991 15.0606 15.8428 13.4058 15.9019 11.6579L15.9057 11.4293V2.97352ZM9.23861 6.66708C10.5016 6.66708 11.7129 7.16881 12.606 8.06189C13.4991 8.95498 14.0008 10.1663 14.0008 11.4293C14.0008 12.6923 13.4991 13.9036 12.606 14.7967C11.7129 15.6897 10.5016 16.1915 9.23861 16.1915C7.9756 16.1915 6.76431 15.6897 5.87123 14.7967C4.97814 13.9036 4.47641 12.6923 4.47641 11.4293C4.47641 10.1663 4.97814 8.95498 5.87123 8.06189C6.76431 7.16881 7.9756 6.66708 9.23861 6.66708ZM9.23861 8.57195C8.4808 8.57195 7.75403 8.87299 7.21818 9.40884C6.68233 9.94469 6.38129 10.6715 6.38129 11.4293C6.38129 12.1871 6.68233 12.9139 7.21818 13.4497C7.75403 13.9856 8.4808 14.2866 9.23861 14.2866C9.99642 14.2866 10.7232 13.9856 11.259 13.4497C11.7949 12.9139 12.0959 12.1871 12.0959 11.4293C12.0959 10.6715 11.7949 9.94469 11.259 9.40884C10.7232 8.87299 9.99642 8.57195 9.23861 8.57195Z" fill="#DE0010"/>
</svg>
