<svg width="24" height="24" viewBox="0 0 24 24" fill="none" xmlns="http://www.w3.org/2000/svg">
<path d="M12.3714 24C14.5918 24 16.7213 23.1179 18.2913 21.5479C19.8614 19.9778 20.7435 17.8483 20.7435 15.6279C20.7435 14.6612 20.4867 13.7336 20.1853 12.8707C18.3245 14.7092 16.9113 15.6279 15.9435 15.6279C20.403 7.81395 17.9528 4.46512 11.2551 0C11.8132 5.5814 8.13398 8.11981 6.63594 9.52967C5.41398 10.6791 4.5655 12.1691 4.20053 13.8065C3.83556 15.4439 3.97092 17.1532 4.58907 18.7128C5.20721 20.2723 6.27963 21.6102 7.66727 22.553C9.05492 23.4957 10.6938 23.9999 12.3714 24V24ZM13.1639 4.1693C16.7818 7.23907 16.7997 9.62456 14.0045 14.5217C13.155 16.0097 14.23 17.8605 15.9435 17.8605C16.7115 17.8605 17.4884 17.6372 18.3089 17.1963C18.0657 18.115 17.6125 18.9646 16.9851 19.6784C16.3577 20.3922 15.5732 20.9506 14.6933 21.3096C13.8134 21.6687 12.8622 21.8185 11.9145 21.7475C10.9669 21.6764 10.0487 21.3863 9.23219 20.9C8.4157 20.4137 7.72325 19.7445 7.20935 18.9451C6.69545 18.1458 6.37414 17.238 6.27071 16.2933C6.16728 15.3486 6.28456 14.3929 6.61332 13.5012C6.94207 12.6096 7.47332 11.8064 8.16524 11.155C8.30589 11.0233 9.01919 10.3903 9.05045 10.3624C9.52375 9.93823 9.91333 9.56205 10.2984 9.15014C11.6715 7.67888 12.6583 6.04688 13.1628 4.1693H13.1639Z" fill="#FF9800"/>
</svg>
