<svg width="24" height="24" viewBox="0 0 24 24" fill="none" xmlns="http://www.w3.org/2000/svg">
<g clip-path="url(#clip0_7_1073)">
<path d="M5.44179 17.8069C3.56785 17.046 2.01653 15.6576 1.05318 13.8792C0.0898312 12.1008 -0.225681 10.043 0.160614 8.05769C0.54691 6.07239 1.61101 4.28299 3.17089 2.99558C4.73077 1.70818 6.6895 1.00276 8.71204 1C10.4693 0.999897 12.1856 1.53049 13.6363 2.52228C15.0869 3.51407 16.2042 4.92083 16.8419 6.55833C18.3629 6.25767 19.9412 6.55792 21.2456 7.39606C22.5499 8.2342 23.4789 9.54506 23.8375 11.0535C24.196 12.5619 23.9563 14.1505 23.1686 15.486C22.3809 16.8214 21.1065 17.7998 19.6129 18.2157V15.8938C20.1167 15.6547 20.562 15.3081 20.9174 14.8784C21.2728 14.4487 21.5296 13.9462 21.6699 13.4065C21.8102 12.8668 21.8304 12.3029 21.7292 11.7545C21.628 11.2061 21.4078 10.6865 21.0841 10.2324C20.7605 9.77831 20.3412 9.40068 19.8558 9.1261C19.3704 8.85153 18.8308 8.68669 18.2748 8.64321C17.7189 8.59972 17.1601 8.67863 16.638 8.87439C16.1158 9.07015 15.6429 9.378 15.2525 9.77625V9.72066C15.2524 8.5726 14.95 7.44481 14.3759 6.45064C13.8017 5.45646 12.976 4.63093 11.9817 4.057C10.9874 3.48308 9.85952 3.18099 8.71146 3.18109C7.5634 3.18119 6.43559 3.48348 5.44139 4.05758C4.44718 4.63168 3.6216 5.45736 3.04763 6.45164C2.47365 7.44591 2.1715 8.57376 2.17154 9.72182C2.17158 10.8699 2.47381 11.9977 3.04786 12.9919C3.6219 13.9862 4.44754 14.8118 5.44179 15.3858V17.8069ZM9.80212 17.3512C9.2239 17.3512 8.66937 17.1215 8.26051 16.7127C7.85165 16.3038 7.62195 15.7493 7.62195 15.1711C7.62195 14.5929 7.85165 14.0383 8.26051 13.6295C8.66937 13.2206 9.2239 12.9909 9.80212 12.9909C10.3803 12.9909 10.9349 13.2206 11.3437 13.6295C11.7526 14.0383 11.9823 14.5929 11.9823 15.1711C11.9823 15.7493 11.7526 16.3038 11.3437 16.7127C10.9349 17.1215 10.3803 17.3512 9.80212 17.3512ZM15.2525 20.6215C14.6743 20.6215 14.1198 20.3918 13.7109 19.9829C13.3021 19.5741 13.0724 19.0195 13.0724 18.4413C13.0724 17.8631 13.3021 17.3086 13.7109 16.8997C14.1198 16.4909 14.6743 16.2612 15.2525 16.2612C15.8307 16.2612 16.3853 16.4909 16.7941 16.8997C17.203 17.3086 17.4327 17.8631 17.4327 18.4413C17.4327 19.0195 17.203 19.5741 16.7941 19.9829C16.3853 20.3918 15.8307 20.6215 15.2525 20.6215ZM9.80212 23.8917C9.2239 23.8917 8.66937 23.662 8.26051 23.2532C7.85165 22.8443 7.62195 22.2898 7.62195 21.7116C7.62195 21.1334 7.85165 20.5788 8.26051 20.17C8.66937 19.7611 9.2239 19.5314 9.80212 19.5314C10.3803 19.5314 10.9349 19.7611 11.3437 20.17C11.7526 20.5788 11.9823 21.1334 11.9823 21.7116C11.9823 22.2898 11.7526 22.8443 11.3437 23.2532C10.9349 23.662 10.3803 23.8917 9.80212 23.8917Z" fill="#1666C0"/>
</g>
<defs>
<clipPath id="clip0_7_1073">
<rect width="24" height="24" fill="white"/>
</clipPath>
</defs>
</svg>
