<svg width="16" height="16" viewBox="0 0 16 16" fill="none" xmlns="http://www.w3.org/2000/svg">
<path d="M8.36139 1.11487L15.0687 14.2058C15.1835 14.4299 15.1705 14.6864 15.0687 14.8851C14.9675 15.0826 14.8257 15.15 14.7073 15.15H1.29274C1.17432 15.15 1.03254 15.0826 0.931348 14.8851C0.829517 14.6864 0.816494 14.4299 0.931348 14.2058L7.63861 1.11487C7.74747 0.902402 7.8969 0.85 8 0.85C8.1031 0.85 8.25253 0.902403 8.36139 1.11487Z" stroke="#EF466F" stroke-width="1.7"/>
<path d="M8.59 6L8.43 10.83H7.25L7.08 6H8.59ZM7.87 13.17C7.61667 13.17 7.40667 13.0933 7.24 12.94C7.08 12.78 7 12.5833 7 12.35C7 12.1167 7.08 11.9233 7.24 11.77C7.40667 11.61 7.61667 11.53 7.87 11.53C8.11667 11.53 8.32 11.61 8.48 11.77C8.64 11.9233 8.72 12.1167 8.72 12.35C8.72 12.5833 8.64 12.78 8.48 12.94C8.32 13.0933 8.11667 13.17 7.87 13.17Z" fill="#EF466F"/>
</svg>
