<svg width="15" height="16" viewBox="0 0 15 16" fill="none" xmlns="http://www.w3.org/2000/svg">
<path d="M14.58 4.96L8.18 0.16C8.04152 0.0561423 7.8731 0 7.7 0C7.5269 0 7.35848 0.0561423 7.22 0.16L0.82 4.96C0.720643 5.03452 0.64 5.13115 0.584458 5.24223C0.528916 5.35331 0.5 5.4758 0.5 5.6V13.6C0.530994 14.2265 0.7938 14.8191 1.23735 15.2627C1.68089 15.7062 2.2735 15.969 2.9 16H12.5C13.1265 15.969 13.7191 15.7062 14.1627 15.2627C14.6062 14.8191 14.869 14.2265 14.9 13.6V5.6C14.9 5.4758 14.8711 5.35331 14.8155 5.24223C14.76 5.13115 14.6794 5.03452 14.58 4.96ZM9.3 14.4H6.1V9.6H9.3V14.4ZM13.3 13.6C13.2697 13.8014 13.1757 13.9877 13.0317 14.1317C12.8877 14.2757 12.7014 14.3697 12.5 14.4H10.9V8.8C10.9 8.58783 10.8157 8.38434 10.6657 8.23431C10.5157 8.08429 10.3122 8 10.1 8H5.3C5.08783 8 4.88434 8.08429 4.73431 8.23431C4.58429 8.38434 4.5 8.58783 4.5 8.8V14.4H2.9C2.69863 14.3697 2.51226 14.2757 2.36827 14.1317C2.22428 13.9877 2.13025 13.8014 2.1 13.6V6L7.7 1.8L13.3 6V13.6Z" fill="#8696A7"/>
</svg>
