<svg width="20" height="20" viewBox="0 0 20 20" fill="none" xmlns="http://www.w3.org/2000/svg">
<path d="M6.00016 19.9743C5.20492 19.9713 4.41835 19.8089 3.68697 19.4966C2.9556 19.1844 2.29429 18.7286 1.74216 18.1562C0.613122 16.9696 -0.0113798 15.3911 0.000157046 13.7533C0.000157046 11.5843 2.15716 8.07425 4.56116 4.35825C4.66716 4.19625 4.75016 4.06425 4.83116 3.93625C4.95016 3.74725 5.06516 3.56625 5.18016 3.40225C5.27707 3.27707 5.40136 3.17573 5.54349 3.10601C5.68563 3.0363 5.84184 3.00005 6.00016 3.00005C6.15847 3.00005 6.31468 3.0363 6.45682 3.10601C6.59896 3.17573 6.72325 3.27707 6.82016 3.40225C6.93516 3.56625 7.05016 3.74725 7.16916 3.93625C7.25016 4.06425 7.33316 4.19625 7.42016 4.32825L7.58816 4.59025C10.0002 8.35025 12.0002 11.6353 12.0002 13.7533C12.0035 15.3808 11.3867 16.9484 10.2752 18.1373L10.2672 18.1463C9.71796 18.7256 9.05618 19.1865 8.32242 19.5009C7.58866 19.8152 6.79841 19.9763 6.00016 19.9743ZM6.00016 5.81625C4.47316 8.17425 2.00016 12.0883 2.00016 13.7533C1.98822 14.8713 2.41052 15.9503 3.17816 16.7633C3.54397 17.1431 3.98211 17.446 4.46676 17.654C4.95141 17.862 5.47278 17.9709 6.00016 17.9743C6.527 17.9751 7.0485 17.8686 7.53283 17.6613C8.01715 17.4539 8.45415 17.1501 8.81716 16.7683C9.57971 15.9497 10.0026 14.8719 10.0002 13.7533C10.0002 12.0833 7.53916 8.21625 6.00016 5.81625ZM16.0002 10.9743C15.47 10.9724 14.9455 10.8644 14.4577 10.6566C13.97 10.4488 13.5288 10.1454 13.1602 9.76425C12.4092 8.97756 11.9932 7.92983 12.0002 6.84225C12.0002 5.43125 13.2662 3.36025 14.7942 0.995251L14.9632 0.734251C15.0372 0.617251 15.1082 0.505251 15.1792 0.403251C15.276 0.277694 15.4004 0.176031 15.5428 0.106081C15.6851 0.0361299 15.8416 -0.000244141 16.0002 -0.000244141C16.1587 -0.000244141 16.3152 0.0361299 16.4576 0.106081C16.5999 0.176031 16.7243 0.277694 16.8212 0.403251C16.8922 0.503251 16.9632 0.617251 17.0372 0.734251L17.2982 1.14025C18.7762 3.44025 19.9982 5.46525 19.9982 6.84025C19.9994 7.91683 19.5911 8.95357 18.8562 9.74025L18.8472 9.75025C18.4809 10.1372 18.0394 10.4454 17.5499 10.6559C17.0604 10.8663 16.533 10.9747 16.0002 10.9743ZM16.0002 2.82125C15.1472 4.16325 14.0002 6.06825 14.0002 6.84225C13.9938 7.41143 14.2089 7.96081 14.6002 8.37425C14.7839 8.55833 15.0021 8.70437 15.2423 8.80401C15.4826 8.90365 15.7401 8.95494 16.0002 8.95494C16.2602 8.95494 16.5178 8.90365 16.758 8.80401C16.9982 8.70437 17.2164 8.55833 17.4002 8.37425C17.7868 7.95791 18.0012 7.41045 18.0002 6.84225C18.0002 6.06525 16.8512 4.16425 16.0002 2.82125ZM9.00016 13.9743C9.00016 13.709 8.8948 13.4547 8.70726 13.2671C8.51973 13.0796 8.26537 12.9743 8.00016 12.9743C7.73494 12.9743 7.48059 13.0796 7.29305 13.2671C7.10551 13.4547 7.00016 13.709 7.00016 13.9743C7.01305 14.1097 6.9957 14.2462 6.94936 14.3741C6.90301 14.502 6.82883 14.6179 6.73218 14.7136C6.63553 14.8093 6.51882 14.8824 6.39049 14.9274C6.26216 14.9725 6.12542 14.9885 5.99016 14.9743C5.72494 14.9756 5.47111 15.0822 5.28451 15.2707C5.09792 15.4592 4.99383 15.714 4.99516 15.9793C4.99648 16.2445 5.10311 16.4983 5.29159 16.6849C5.48006 16.8715 5.73494 16.9756 6.00016 16.9743C6.39727 16.9859 6.79258 16.9162 7.16181 16.7696C7.53103 16.6229 7.8664 16.4023 8.14733 16.1214C8.42825 15.8405 8.64881 15.5051 8.79546 15.1359C8.94211 14.7667 9.01177 14.3714 9.00016 13.9743Z" fill="#29B6F6"/>
</svg>
