<svg width="21" height="20" viewBox="0 0 21 20" fill="none" xmlns="http://www.w3.org/2000/svg">
<path d="M10.7273 20C8.07515 19.9897 5.53572 18.9262 3.66767 17.0435C1.79962 15.1608 0.755968 12.6132 0.766312 9.96102C0.776655 7.30885 1.84014 4.76942 3.72282 2.90137C5.6055 1.03332 8.15315 -0.0103283 10.8053 1.51217e-05C13.4513 0.0201571 15.9831 1.08019 17.8541 2.95121C19.7251 4.82222 20.7852 7.35408 20.8053 10C20.7908 12.6612 19.7218 15.2081 17.8327 17.0826C15.9437 18.957 13.3885 20.0061 10.7273 20ZM18.8053 10.005C18.8114 8.41764 18.3467 6.8641 17.4699 5.54084C16.5931 4.21758 15.3436 3.18405 13.8794 2.57092C12.4152 1.9578 10.802 1.79264 9.24398 2.09631C7.68591 2.39998 6.25287 3.15885 5.12609 4.27696C3.99932 5.39507 3.2294 6.8222 2.9137 8.37787C2.598 9.93355 2.7507 11.5479 3.35249 13.0168C3.95429 14.4857 4.97814 15.7431 6.29459 16.6302C7.61103 17.5172 9.16094 17.9939 10.7483 18C12.8753 18.003 14.917 17.1636 16.4268 15.6653C17.9367 14.1671 18.7918 12.132 18.8053 10.005ZM11.0393 7.70502C10.8401 7.61955 10.6255 7.57562 10.4087 7.57592C10.1919 7.57623 9.97744 7.62075 9.77844 7.70677C9.57944 7.79279 9.40008 7.9185 9.25133 8.07622C9.10258 8.23393 8.98756 8.42033 8.91331 8.62401C8.82952 8.82467 8.79017 9.04108 8.79797 9.25839C8.80577 9.47569 8.86054 9.68873 8.95851 9.88286C9.05647 10.077 9.19531 10.2476 9.36549 10.383C9.53566 10.5183 9.73312 10.6152 9.94431 10.667C10.5243 10.802 10.6593 11.106 10.8123 11.58C11.0486 12.2787 11.4959 12.8867 12.0926 13.3202C12.6893 13.7537 13.4058 13.9912 14.1433 14C14.8951 14.0091 15.6312 13.7847 16.2501 13.3577C16.8689 12.9307 17.34 12.3221 17.5983 11.616C17.8504 10.9256 17.8768 10.173 17.6735 9.46663C17.4702 8.7603 17.0479 8.13679 16.4673 7.68602C16.2668 7.58037 16.1081 7.40972 16.0172 7.20205C15.9264 6.99438 15.9088 6.762 15.9673 6.54302C16.033 6.08129 15.9489 5.61066 15.7273 5.20028C15.5057 4.7899 15.1584 4.46139 14.7363 4.26302C14.3223 4.04634 13.8523 3.95999 13.3883 4.01532C12.9243 4.07065 12.4878 4.26506 12.1363 4.57302C11.7837 4.87415 11.5314 5.27571 11.4132 5.72404C11.2949 6.17238 11.3162 6.64613 11.4743 7.08202C11.5583 7.32302 11.6483 7.56202 11.8143 8.01902C11.4113 7.85902 11.2273 7.78002 11.0393 7.71002V7.70502ZM7.82031 11C7.42558 10.9971 7.03882 11.1111 6.70874 11.3276C6.37866 11.5441 6.12003 11.8534 5.96541 12.2166C5.81079 12.5798 5.76711 12.9806 5.83986 13.3686C5.91262 13.7566 6.09855 14.1143 6.37425 14.3968C6.64995 14.6793 7.00308 14.8739 7.38917 14.9561C7.77526 15.0383 8.17703 15.0044 8.54389 14.8587C8.91075 14.713 9.22629 14.462 9.45076 14.1373C9.67523 13.8126 9.79859 13.4287 9.80531 13.034C9.81092 12.5013 9.60515 11.9881 9.23308 11.6069C8.86101 11.2256 8.35298 11.0074 7.82031 11ZM7.80531 7.54402C7.814 7.24665 7.73407 6.95343 7.57568 6.70161C7.4173 6.44979 7.18761 6.25075 6.91582 6.1298C6.64403 6.00884 6.34242 5.97144 6.04931 6.02234C5.75621 6.07323 5.48486 6.21013 5.26976 6.41564C5.05466 6.62114 4.90553 6.88596 4.84131 7.17643C4.7771 7.46691 4.80071 7.76992 4.90914 8.04694C5.01757 8.32397 5.20592 8.56249 5.45025 8.7322C5.69459 8.90191 5.98386 8.99513 6.28131 9.00002C6.67414 9.0009 7.05209 8.84987 7.33613 8.57851C7.62016 8.30715 7.78828 7.93647 7.80531 7.54402ZM12.8053 16.052C12.8169 15.8544 12.7696 15.6578 12.6693 15.4871C12.5691 15.3164 12.4205 15.1793 12.2422 15.0932C12.064 15.007 11.8643 14.9757 11.6682 15.0032C11.4722 15.0307 11.2887 15.1157 11.1411 15.2475C10.9934 15.3793 10.8882 15.552 10.8387 15.7437C10.7893 15.9353 10.7978 16.1374 10.8633 16.3242C10.9287 16.511 11.0482 16.6742 11.2064 16.7931C11.3647 16.9119 11.5547 16.9812 11.7523 16.992C12.0151 17.0011 12.2713 16.9084 12.4674 16.7333C12.6636 16.5582 12.7846 16.3141 12.8053 16.052Z" fill="#43A047"/>
</svg>
