<svg width="15" height="16" viewBox="0 0 15 16" fill="none" xmlns="http://www.w3.org/2000/svg">
<path d="M1.87711 10.7017V15.3333H0.333252V0.666626H7.5755C7.71882 0.666703 7.85928 0.706676 7.98117 0.78207C8.10305 0.857464 8.20154 0.9653 8.2656 1.0935L8.82448 2.21049H13.4561C13.6608 2.21049 13.8571 2.29181 14.0019 2.43658C14.1467 2.58134 14.228 2.77769 14.228 2.98242V11.4736C14.228 11.6784 14.1467 11.8747 14.0019 12.0195C13.8571 12.1642 13.6608 12.2456 13.4561 12.2456H8.5296C8.38629 12.2455 8.24582 12.2055 8.12393 12.1301C8.00205 12.0547 7.90356 11.9469 7.8395 11.8187L7.28062 10.7017H1.87711ZM1.87711 2.21049V9.15785H8.23473L9.00666 10.7017H12.6841V3.75435H7.87038L7.09845 2.21049H1.87711Z" fill="#3772FF"/>
</svg>
