<svg width="16" height="16" viewBox="0 0 16 16" fill="none" xmlns="http://www.w3.org/2000/svg">
<path fill-rule="evenodd" clip-rule="evenodd" d="M8 0C6.41775 0 4.87103 0.469192 3.55544 1.34824C2.23985 2.22729 1.21447 3.47672 0.608967 4.93853C0.00346627 6.40034 -0.15496 8.00887 0.153721 9.56072C0.462403 11.1126 1.22433 12.538 2.34315 13.6569C3.46197 14.7757 4.88743 15.5376 6.43928 15.8463C7.99113 16.155 9.59966 15.9965 11.0615 15.391C12.5233 14.7855 13.7727 13.7602 14.6518 12.4446C15.5308 11.129 16 9.58225 16 8C16 5.87827 15.1571 3.84344 13.6569 2.34315C12.1566 0.842854 10.1217 0 8 0V0ZM8 14.4C6.7342 14.4 5.49683 14.0246 4.44435 13.3214C3.39188 12.6182 2.57157 11.6186 2.08717 10.4492C1.60277 9.27972 1.47603 7.9929 1.72298 6.75142C1.96992 5.50994 2.57946 4.36957 3.47452 3.47452C4.36958 2.57946 5.50995 1.96992 6.75142 1.72297C7.9929 1.47603 9.27973 1.60277 10.4492 2.08717C11.6186 2.57157 12.6182 3.39187 13.3214 4.44435C14.0246 5.49682 14.4 6.7342 14.4 8C14.4 9.69738 13.7257 11.3252 12.5255 12.5255C11.3253 13.7257 9.69739 14.4 8 14.4ZM12.5128 6.2144L7.7128 11.0144C7.66748 11.0461 7.61895 11.0729 7.568 11.0944C7.54231 11.1117 7.51559 11.1275 7.488 11.1416C7.39647 11.1788 7.2988 11.1986 7.2 11.2C7.08971 11.1996 6.98071 11.1762 6.88 11.1312C6.8471 11.1127 6.81556 11.0918 6.7856 11.0688C6.72999 11.0406 6.6779 11.006 6.6304 10.9656L4.2304 8.5656C4.15613 8.49106 4.09726 8.40262 4.05716 8.30533C4.01707 8.20804 3.99652 8.10381 3.99671 7.99858C3.99689 7.89336 4.0178 7.7892 4.05824 7.69205C4.09869 7.5949 4.15786 7.50667 4.2324 7.4324C4.30694 7.35812 4.39538 7.29925 4.49267 7.25916C4.58996 7.21906 4.69419 7.19852 4.79942 7.1987C4.90464 7.19889 5.0088 7.2198 5.10595 7.26024C5.2031 7.30068 5.29133 7.35986 5.3656 7.4344L7.2488 9.3176L11.4888 4.9856C11.5695 4.91826 11.6626 4.86747 11.763 4.83613C11.8633 4.80479 11.9688 4.79351 12.0734 4.80295C12.1781 4.81238 12.2799 4.84234 12.373 4.89111C12.4661 4.93988 12.5487 5.00651 12.616 5.0872C12.6833 5.16788 12.7341 5.26104 12.7655 5.36135C12.7968 5.46167 12.8081 5.56717 12.7987 5.67184C12.7892 5.77651 12.7593 5.8783 12.7105 5.97139C12.6617 6.06448 12.5951 6.14706 12.5144 6.2144H12.5128Z" fill="#6FB455"/>
</svg>
