<svg width="16" height="16" viewBox="0 0 16 16" fill="none" xmlns="http://www.w3.org/2000/svg">
<path d="M8 16C5.87898 15.9977 3.8455 15.1541 2.34572 13.6543C0.845932 12.1545 0.00232928 10.121 0 8C0.00232928 5.87898 0.845932 3.8455 2.34572 2.34572C3.8455 0.845932 5.87898 0.00232928 8 0C10.121 0.00232928 12.1545 0.845932 13.6543 2.34572C15.1541 3.8455 15.9977 5.87898 16 8C15.9977 10.121 15.1541 12.1545 13.6543 13.6543C12.1545 15.1541 10.121 15.9977 8 16ZM8 1.6C6.3032 1.60191 4.67644 2.2768 3.47662 3.47662C2.2768 4.67644 1.60191 6.3032 1.6 8C1.60191 9.6968 2.2768 11.3236 3.47662 12.5234C4.67644 13.7232 6.3032 14.3981 8 14.4C9.6968 14.3981 11.3236 13.7232 12.5234 12.5234C13.7232 11.3236 14.3981 9.6968 14.4 8C14.3981 6.3032 13.7232 4.67644 12.5234 3.47662C11.3236 2.2768 9.6968 1.60191 8 1.6ZM11.0656 10.044C11.1239 9.9566 11.1644 9.85856 11.1849 9.75549C11.2053 9.65242 11.2052 9.54634 11.1846 9.4433C11.1641 9.34026 11.1234 9.24228 11.0649 9.15496C11.0065 9.06765 10.9314 8.9927 10.844 8.9344L8.8 7.572V4C8.8 3.78783 8.71572 3.58434 8.56569 3.43431C8.41566 3.28429 8.21217 3.2 8 3.2C7.78783 3.2 7.58434 3.28429 7.43431 3.43431C7.28429 3.58434 7.2 3.78783 7.2 4V8C7.19998 8.13167 7.23246 8.26132 7.29456 8.37743C7.35667 8.49354 7.44647 8.59252 7.556 8.6656L9.956 10.2656C10.0875 10.3533 10.242 10.4 10.4 10.4C10.5317 10.4 10.6613 10.3675 10.7774 10.3054C10.8935 10.2433 10.9925 10.1535 11.0656 10.044Z" fill="#FFD166"/>
</svg>
