<svg width="22" height="20" viewBox="0 0 22 20" fill="none" xmlns="http://www.w3.org/2000/svg">
<path d="M18.1787 7.579C17.794 7.35384 17.382 7.17907 16.9527 7.059C17.0636 6.62715 17.1187 6.18286 17.1167 5.737C17.0809 4.27815 16.5058 2.88431 15.5024 1.82474C14.4989 0.765177 13.1385 0.115068 11.6837 0V0.014C12.7251 0.175399 13.6745 0.704085 14.36 1.50447C15.0456 2.30486 15.4222 3.32413 15.4217 4.378C15.4237 5.15422 15.2164 5.91662 14.8217 6.585C14.7641 6.69109 14.6996 6.79331 14.6287 6.891C14.4371 7.17036 14.2129 7.42583 13.9607 7.652C13.1501 8.38716 12.095 8.79438 11.0007 8.79438C9.90641 8.79438 8.85127 8.38716 8.0407 7.652C7.78876 7.42561 7.56453 7.17016 7.3727 6.891C7.30235 6.79292 7.2379 6.69074 7.1797 6.585C6.78501 5.91662 6.57775 5.15422 6.5797 4.378C6.57917 3.32428 6.95561 2.30513 7.64099 1.50476C8.32636 0.704394 9.27545 0.175615 10.3167 0.014V0.00299999C8.86231 0.118539 7.50231 0.768854 6.4993 1.82837C5.49629 2.88789 4.92143 4.28146 4.8857 5.74C4.88482 6.18493 4.94061 6.62816 5.0517 7.059C4.62389 7.1764 4.21312 7.34884 3.8297 7.572C2.56016 8.34707 1.62956 9.57236 1.22362 11.0033C0.817683 12.4343 0.966261 13.9657 1.6397 15.292H1.6467C1.35504 14.6193 1.23612 13.8843 1.30076 13.1539C1.36541 12.4235 1.61156 11.7209 2.01684 11.1098C2.42213 10.4987 2.9737 9.99865 3.62142 9.65499C4.26915 9.31133 4.99249 9.13499 5.7257 9.142C5.8457 9.142 5.9567 9.149 6.0727 9.159C6.78299 9.21525 7.46889 9.44369 8.07106 9.82458C8.67322 10.2055 9.17353 10.7273 9.5287 11.345V11.351C10.0649 12.2774 10.2428 13.3682 10.0287 14.417C9.95782 14.77 9.84467 15.1131 9.6917 15.439C9.6507 15.525 9.6057 15.615 9.5607 15.701C9.21577 16.3219 8.72624 16.8506 8.13358 17.2421C7.54093 17.6337 6.86263 17.8766 6.15615 17.9503C5.44967 18.024 4.73583 17.9263 4.07514 17.6654C3.41444 17.4046 2.82635 16.9884 2.3607 16.452L2.3467 16.466C3.18952 17.6213 4.42327 18.4312 5.81847 18.745C7.21368 19.0588 8.67538 18.8552 9.9317 18.172C10.3172 17.9508 10.6733 17.6821 10.9917 17.372C11.3101 17.6821 11.6662 17.9508 12.0517 18.172C13.3091 18.8592 14.774 19.0642 16.1718 18.7487C17.5696 18.4332 18.8044 17.6187 19.6447 16.458V16.441C19.18 16.9786 18.5923 17.3961 17.9316 17.6579C17.2709 17.9197 16.5568 18.0181 15.8499 17.9448C15.1431 17.8715 14.4644 17.6285 13.8715 17.2367C13.2787 16.8448 12.7892 16.3156 12.4447 15.694C12.3967 15.608 12.3517 15.518 12.3107 15.432C12.1577 15.1061 12.0446 14.763 11.9737 14.41C11.7606 13.3612 11.9385 12.2707 12.4737 11.344V11.338C12.8289 10.7203 13.3292 10.1985 13.9313 9.81758C14.5335 9.43669 15.2194 9.20825 15.9297 9.152C16.0467 9.142 16.1607 9.135 16.2767 9.135C17.0088 9.13026 17.7306 9.30793 18.3768 9.65198C19.023 9.99604 19.5734 10.4956 19.9782 11.1057C20.383 11.7157 20.6295 12.4169 20.6954 13.1461C20.7613 13.8752 20.6445 14.6093 20.3557 15.282H20.3667C21.0353 13.9578 21.1815 12.4305 20.7761 11.0035C20.3708 9.57644 19.4436 8.35404 18.1787 7.579ZM12.6297 14.191C12.6323 14.22 12.637 14.2487 12.6437 14.277C12.7024 14.578 12.7981 14.8705 12.9287 15.148C12.9627 15.213 13.0007 15.289 13.0387 15.361C13.0586 15.3979 13.0806 15.4337 13.1047 15.468C14.0931 15.0544 14.937 14.3574 15.53 13.465C16.1229 12.5725 16.4384 11.5245 16.4367 10.453C16.4375 10.2437 16.4248 10.0346 16.3987 9.827H16.2987C16.1817 9.827 16.0877 9.834 15.9927 9.841C15.7027 9.86317 15.4163 9.9199 15.1397 10.01C15.1114 10.0213 15.0823 10.0306 15.0527 10.038C15.0695 10.1774 15.0778 10.3176 15.0777 10.458C15.0778 11.251 14.8463 12.0267 14.4116 12.6899C13.9769 13.353 13.3579 13.8748 12.6307 14.191H12.6297ZM7.7737 6.237C7.82154 6.32576 7.87568 6.41098 7.9357 6.492C8.09744 6.73073 8.28711 6.94928 8.5007 7.143C8.5217 7.16 8.5387 7.177 8.5597 7.194C9.26407 6.66532 10.121 6.3795 11.0017 6.3795C11.8824 6.3795 12.7393 6.66532 13.4437 7.194C13.4636 7.17993 13.4821 7.16384 13.4987 7.146C13.7128 6.95569 13.9023 6.73934 14.0627 6.502C14.1208 6.42408 14.1739 6.34259 14.2217 6.258C14.2457 6.213 14.2737 6.171 14.2937 6.127C13.3475 5.40769 12.1917 5.01823 11.0032 5.01823C9.81466 5.01823 8.65886 5.40769 7.7127 6.127C7.7327 6.161 7.7537 6.199 7.7737 6.237ZM6.8657 10.009C6.59014 9.92021 6.30526 9.8635 6.0167 9.84C5.9167 9.833 5.8237 9.826 5.7247 9.826H5.6057C5.57909 10.0339 5.56639 10.2434 5.5677 10.453C5.5653 11.5259 5.88116 12.5755 6.47533 13.4689C7.0695 14.3623 7.91529 15.0594 8.9057 15.472C8.9297 15.438 8.9477 15.403 8.9677 15.372C9.0027 15.31 9.0437 15.227 9.0817 15.144C9.21037 14.8723 9.30508 14.5858 9.3637 14.291C9.3707 14.26 9.3737 14.229 9.3807 14.198C8.65033 13.882 8.02861 13.3589 7.59245 12.6933C7.15629 12.0277 6.92483 11.2488 6.9267 10.453C6.92575 10.314 6.93377 10.175 6.9507 10.037L6.8657 10.009Z" fill="#FBC02D"/>
</svg>
