<svg width="24" height="24" viewBox="0 0 24 24" fill="none" xmlns="http://www.w3.org/2000/svg">
<g clip-path="url(#clip0_23_920)">
<path d="M12 0C9.62663 0 7.30655 0.703788 5.33316 2.02236C3.35977 3.34094 1.8217 5.21509 0.913451 7.4078C0.00519943 9.60051 -0.232441 12.0133 0.230582 14.3411C0.693605 16.6689 1.83649 18.8071 3.51472 20.4853C5.19295 22.1635 7.33115 23.3064 9.65892 23.7694C11.9867 24.2324 14.3995 23.9948 16.5922 23.0866C18.7849 22.1783 20.6591 20.6402 21.9776 18.6668C23.2962 16.6935 24 14.3734 24 12C23.9966 8.81846 22.7312 5.76821 20.4815 3.51852C18.2318 1.26883 15.1815 0.00344108 12 0V0ZM12 21C10.22 21 8.47992 20.4722 6.99987 19.4832C5.51983 18.4943 4.36628 17.0887 3.68509 15.4442C3.0039 13.7996 2.82567 11.99 3.17294 10.2442C3.5202 8.49836 4.37737 6.89471 5.63604 5.63604C6.89472 4.37737 8.49836 3.5202 10.2442 3.17293C11.99 2.82567 13.7996 3.0039 15.4442 3.68508C17.0887 4.36627 18.4943 5.51983 19.4832 6.99987C20.4722 8.47991 21 10.22 21 12C20.9971 14.3861 20.0479 16.6736 18.3608 18.3607C16.6736 20.0479 14.3861 20.9971 12 21V21Z" fill="#777E91"/>
<path d="M11.5451 9.5454H11.2451C10.8521 9.53575 10.4696 9.67324 10.1727 9.93094C9.87578 10.1886 9.68583 10.5479 9.64007 10.9384C9.61391 11.329 9.74151 11.7144 9.99562 12.0122C10.2497 12.3101 10.6102 12.4967 11.0001 12.5324V17.1824C11.0001 17.5802 11.1581 17.9618 11.4394 18.2431C11.7207 18.5244 12.1023 18.6824 12.5001 18.6824C12.8979 18.6824 13.2794 18.5244 13.5607 18.2431C13.8421 17.9618 14.0001 17.5802 14.0001 17.1824V12.0004C14.0001 11.3493 13.7414 10.7249 13.281 10.2644C12.8206 9.80405 12.1962 9.5454 11.5451 9.5454V9.5454Z" fill="#777E91"/>
<path d="M11.8303 8.46642C12.1697 8.46642 12.5014 8.36578 12.7836 8.17723C13.0658 7.98867 13.2858 7.72067 13.4156 7.40711C13.5455 7.09355 13.5795 6.74852 13.5133 6.41565C13.4471 6.08278 13.2837 5.77702 13.0437 5.53703C12.8037 5.29704 12.4979 5.13361 12.165 5.0674C11.8322 5.00118 11.4871 5.03517 11.1736 5.16505C10.86 5.29493 10.592 5.51487 10.4035 5.79707C10.2149 6.07926 10.1143 6.41103 10.1143 6.75042C10.1141 6.97581 10.1584 7.19901 10.2446 7.40727C10.3308 7.61552 10.4572 7.80474 10.6166 7.96411C10.7759 8.12348 10.9652 8.24988 11.1734 8.33607C11.3817 8.42226 11.6049 8.46656 11.8303 8.46642V8.46642Z" fill="#777E91"/>
</g>
<defs>
<clipPath id="clip0_23_920">
<rect width="24" height="24" fill="white"/>
</clipPath>
</defs>
</svg>
