<svg width="20" height="20" viewBox="0 0 20 20" fill="none" xmlns="http://www.w3.org/2000/svg">
<path d="M6.88504 15.0048H2.91671C2.14316 15.0048 1.40129 14.6975 0.854312 14.1505C0.307331 13.6036 3.99584e-05 12.8617 3.99584e-05 12.0881V7.69815C-0.00365289 6.5474 0.248661 5.41024 0.738704 4.36904C1.22875 3.32784 1.94425 2.40868 2.83337 1.67814C3.6763 0.978698 4.66615 0.478405 5.72922 0.214513C6.79229 -0.0493791 7.9012 -0.070071 8.97337 0.153978C10.4533 0.451686 11.8092 1.18864 12.8639 2.26865C13.9186 3.34866 14.6233 4.72156 14.8859 6.20815C15.0808 7.25699 15.0403 8.33603 14.7673 9.36731C14.4944 10.3986 13.9958 11.3564 13.3075 12.1715C12.5082 13.0832 11.5191 13.8092 10.4097 14.2986C9.30033 14.7881 8.09736 15.0291 6.88504 15.0048ZM7.48254 2.50481C6.36268 2.50251 5.27759 2.8936 4.41671 3.60981C3.81765 4.10961 3.33554 4.73474 3.00437 5.44114C2.67321 6.14753 2.50105 6.91798 2.50004 7.69815V12.0881C2.50004 12.1987 2.54394 12.3046 2.62208 12.3828C2.70022 12.4609 2.8062 12.5048 2.91671 12.5048H6.88504C7.73312 12.5278 8.57601 12.3656 9.35494 12.0293C10.1339 11.6931 10.8301 11.1911 11.395 10.5581C11.8464 10.0207 12.1727 9.38976 12.3504 8.71082C12.5281 8.03188 12.5527 7.32194 12.4225 6.63231C12.2393 5.64708 11.7677 4.73842 11.0675 4.02156C10.3672 3.30469 9.46988 2.81189 8.48921 2.60564C8.15772 2.53943 7.82057 2.50566 7.48254 2.50481ZM17.4825 8.15648C17.2194 7.94515 16.9409 7.75379 16.6492 7.58398C16.6459 8.52911 16.4903 9.46754 16.1884 10.3631C17.0233 11.1961 17.4948 12.3255 17.5 13.5048V17.0881C17.5 17.1987 17.4561 17.3046 17.378 17.3828C17.2999 17.4609 17.1939 17.5048 17.0834 17.5048H13.8667C13.2111 17.5194 12.5591 17.4039 11.9485 17.1649C11.3378 16.9259 10.7807 16.5681 10.3092 16.1123C9.42531 16.4061 8.50659 16.5824 7.57671 16.6365C7.75215 16.9358 7.9517 17.2204 8.17337 17.4873C8.88155 18.2965 9.75805 18.9411 10.7415 19.376C11.725 19.8108 12.7916 20.0255 13.8667 20.0048H17.0834C17.8569 20.0048 18.5988 19.6975 19.1458 19.1505C19.6927 18.6036 20 17.8617 20 17.0881V13.5048C20.0037 12.4829 19.7801 11.473 19.3452 10.5483C18.9104 9.62352 18.2753 8.80709 17.4859 8.15815L17.4825 8.15648Z" fill="#3772FF"/>
</svg>
