<svg width="32" height="32" viewBox="0 0 32 32" fill="none" xmlns="http://www.w3.org/2000/svg">
<path d="M16 32C7.1632 32 0 24.8368 0 16C0 7.1632 7.1632 0 16 0C24.8368 0 32 7.1632 32 16C32 24.8368 24.8368 32 16 32ZM16 28.8C19.3948 28.8 22.6505 27.4514 25.051 25.051C27.4514 22.6505 28.8 19.3948 28.8 16C28.8 12.6052 27.4514 9.3495 25.051 6.94903C22.6505 4.54857 19.3948 3.2 16 3.2C12.6052 3.2 9.3495 4.54857 6.94903 6.94903C4.54857 9.3495 3.2 12.6052 3.2 16C3.2 19.3948 4.54857 22.6505 6.94903 25.051C9.3495 27.4514 12.6052 28.8 16 28.8V28.8ZM23.2 8.8L19.2 19.2L8.8 23.2L12.8 12.8L23.2 8.8ZM16 17.6C16.4243 17.6 16.8313 17.4314 17.1314 17.1314C17.4314 16.8313 17.6 16.4243 17.6 16C17.6 15.5757 17.4314 15.1687 17.1314 14.8686C16.8313 14.5686 16.4243 14.4 16 14.4C15.5757 14.4 15.1687 14.5686 14.8686 14.8686C14.5686 15.1687 14.4 15.5757 14.4 16C14.4 16.4243 14.5686 16.8313 14.8686 17.1314C15.1687 17.4314 15.5757 17.6 16 17.6V17.6Z" fill="#3772FF"/>
</svg>
