<svg width="32" height="32" viewBox="0 0 32 32" fill="none" xmlns="http://www.w3.org/2000/svg">
<path d="M2.53338 2.66675H28.9334C29.3224 2.66675 29.6954 2.82127 29.9705 3.09632C30.2455 3.37138 30.4 3.74443 30.4 4.13341V27.6001C30.4 27.9891 30.2455 28.3621 29.9705 28.6372C29.6954 28.9122 29.3224 29.0667 28.9334 29.0667H2.53338C2.14439 29.0667 1.77134 28.9122 1.49629 28.6372C1.22123 28.3621 1.06671 27.9891 1.06671 27.6001V4.13341C1.06671 3.74443 1.22123 3.37138 1.49629 3.09632C1.77134 2.82127 2.14439 2.66675 2.53338 2.66675V2.66675ZM27.4667 8.88248L15.839 19.2958L4.00004 8.85021V26.1334H27.4667V8.88248ZM4.74951 5.60008L15.8228 15.371L26.7363 5.60008H4.74951Z" fill="#3772FF"/>
</svg>
