<svg width="56" height="56" viewBox="0 0 56 56" fill="none" xmlns="http://www.w3.org/2000/svg">
<path d="M42 26H14C12.8954 26 12 26.8954 12 28C12 29.1046 12.8954 30 14 30H42C43.1046 30 44 29.1046 44 28C44 26.8954 43.1046 26 42 26Z" fill="#fff"/>
<path d="M14 20.6668H42C43.1046 20.6668 44 19.7713 44 18.6668C44 17.5622 43.1046 16.6667 42 16.6667H14C12.8954 16.6667 12 17.5622 12 18.6668C12 19.7713 12.8954 20.6668 14 20.6668Z" fill="#fff"/>
<path d="M42 35.3335H14C12.8954 35.3335 12 36.2289 12 37.3335C12 38.4381 12.8954 39.3335 14 39.3335H42C43.1046 39.3335 44 38.4381 44 37.3335C44 36.2289 43.1046 35.3335 42 35.3335Z" fill="#fff"/>
<rect x="1" y="1" width="54" height="54" rx="27" stroke="#fff" stroke-width="2"/>
</svg>
