<svg width="10" height="10" viewBox="0 0 10 10" fill="none" xmlns="http://www.w3.org/2000/svg">
<path d="M6.24755 4.99972L8.83355 2.41105C9.00144 2.22022 9.09038 1.97262 9.08227 1.71858C9.07415 1.46453 8.96961 1.22311 8.78988 1.04338C8.61015 0.863655 8.36873 0.75911 8.11469 0.750999C7.86064 0.742888 7.61304 0.83182 7.42221 0.999717L4.83355 3.58572L2.24021 0.991717C2.14733 0.898829 2.03705 0.825146 1.91569 0.774875C1.79432 0.724605 1.66424 0.69873 1.53288 0.69873C1.40152 0.69873 1.27144 0.724605 1.15007 0.774875C1.02871 0.825146 0.918436 0.898829 0.825547 0.991717C0.732659 1.08461 0.658976 1.19488 0.608705 1.31624C0.558434 1.43761 0.53256 1.56769 0.53256 1.69905C0.53256 1.83041 0.558434 1.96049 0.608705 2.08186C0.658976 2.20322 0.732659 2.3135 0.825547 2.40638L3.41955 4.99972L0.833547 7.58772C0.732129 7.67838 0.650274 7.78877 0.59299 7.91216C0.535705 8.03554 0.504197 8.16931 0.500391 8.30529C0.496586 8.44127 0.520563 8.57659 0.570857 8.70298C0.621151 8.82938 0.696704 8.94418 0.792893 9.04037C0.889082 9.13656 1.00389 9.21211 1.13028 9.26241C1.25667 9.3127 1.392 9.33668 1.52798 9.33287C1.66395 9.32907 1.79773 9.29756 1.92111 9.24027C2.04449 9.18299 2.15489 9.10113 2.24555 8.99972L4.83355 6.41372L7.41888 8.99972C7.60648 9.18731 7.86091 9.2927 8.12621 9.2927C8.39152 9.2927 8.64595 9.18731 8.83355 8.99972C9.02114 8.81212 9.12653 8.55768 9.12653 8.29238C9.12653 8.02708 9.02114 7.77265 8.83355 7.58505L6.24755 4.99972Z" fill="#EF466F"/>
</svg>
