<svg width="24" height="24" viewBox="0 0 24 24" fill="none" xmlns="http://www.w3.org/2000/svg">
<path d="M5.59995 2.4V21.6H17.6V2.4H5.59995ZM4.39995 0H18.8C19.1182 0 19.4234 0.126428 19.6485 0.351472C19.8735 0.576515 20 0.88174 20 1.2V22.8C20 23.1183 19.8735 23.4235 19.6485 23.6485C19.4234 23.8736 19.1182 24 18.8 24H4.39995C4.08169 24 3.77647 23.8736 3.55142 23.6485C3.32638 23.4235 3.19995 23.1183 3.19995 22.8V1.2C3.19995 0.88174 3.32638 0.576515 3.55142 0.351472C3.77647 0.126428 4.08169 0 4.39995 0ZM11.6 18C11.9182 18 12.2234 18.1264 12.4485 18.3515C12.6735 18.5765 12.8 18.8817 12.8 19.2C12.8 19.5183 12.6735 19.8235 12.4485 20.0485C12.2234 20.2736 11.9182 20.4 11.6 20.4C11.2817 20.4 10.9765 20.2736 10.7514 20.0485C10.5264 19.8235 10.4 19.5183 10.4 19.2C10.4 18.8817 10.5264 18.5765 10.7514 18.3515C10.9765 18.1264 11.2817 18 11.6 18V18Z" fill="#9757D7"/>
</svg>
