<svg width="24" height="24" viewBox="0 0 24 24" fill="none" xmlns="http://www.w3.org/2000/svg">
<g clip-path="url(#clip0_1525_19283)">
<path d="M8.0881 10.2427C9.33921 12.4406 11.1595 14.2609 13.3574 15.512L14.5361 13.8613C14.7256 13.5959 15.0059 13.4092 15.3238 13.3364C15.6418 13.2637 15.9753 13.31 16.2614 13.4667C18.1472 14.4972 20.2297 15.117 22.3721 15.2853C22.7065 15.3118 23.0186 15.4634 23.2462 15.7098C23.4738 15.9561 23.6001 16.2793 23.6001 16.6147V22.564C23.6002 22.8941 23.4778 23.2125 23.2566 23.4576C23.0354 23.7027 22.7312 23.857 22.4028 23.8907C21.6961 23.964 20.9841 24 20.2668 24C8.85343 24 -0.399902 14.7467 -0.399902 3.33333C-0.399902 2.616 -0.363902 1.904 -0.290569 1.19733C-0.256896 0.86893 -0.10259 0.564694 0.142484 0.343512C0.387558 0.12233 0.705972 -7.11437e-05 1.0361 3.1023e-08H6.98543C7.32085 -4.20247e-05 7.64396 0.126335 7.89034 0.353934C8.13672 0.581533 8.28827 0.893631 8.31476 1.228C8.48306 3.37039 9.10286 5.45291 10.1334 7.33867C10.2901 7.62475 10.3364 7.95832 10.2637 8.27626C10.1909 8.5942 10.0042 8.87446 9.73876 9.064L8.0881 10.2427V10.2427ZM4.72543 9.36667L7.25877 7.55733C6.53981 6.00546 6.04723 4.35845 5.7961 2.66667H2.2801C2.2721 2.888 2.2681 3.11067 2.2681 3.33333C2.26676 13.2747 10.3254 21.3333 20.2668 21.3333C20.4894 21.3333 20.7121 21.3293 20.9334 21.32V17.804C19.2416 17.5529 17.5946 17.0603 16.0428 16.3413L14.2334 18.8747C13.505 18.5916 12.7974 18.2575 12.1161 17.8747L12.0388 17.8307C9.42354 16.3423 7.25781 14.1766 5.76943 11.5613L5.72543 11.484C5.34264 10.8027 5.00848 10.0951 4.72543 9.36667V9.36667Z" fill="#9757D7"/>
</g>
<defs>
<clipPath id="clip0_1525_19283">
<rect width="24" height="24" fill="white"/>
</clipPath>
</defs>
</svg>
