<svg width="30" height="27" viewBox="0 0 30 27" fill="none" xmlns="http://www.w3.org/2000/svg">
<path d="M25.4998 16V20H29.4998V22.6667H25.4998V26.6667H22.8332V22.6667H18.8332V20H22.8332V16H25.4998ZM25.5105 0C26.2412 0 26.8332 0.593333 26.8332 1.324V13.3333H24.1665V2.66667H2.83317V21.332L16.1665 8L20.1665 12V15.772L16.1665 11.772L6.6025 21.3333H16.1665V24H1.48917C1.13826 23.9996 0.801833 23.86 0.553823 23.6117C0.305813 23.3635 0.166504 23.0269 0.166504 22.676V1.324C0.168944 0.973838 0.309038 0.63869 0.556521 0.390957C0.804005 0.143224 1.13901 0.00279287 1.48917 0H25.5105ZM8.1665 5.33333C8.87375 5.33333 9.55202 5.61428 10.0521 6.11438C10.5522 6.61448 10.8332 7.29276 10.8332 8C10.8332 8.70724 10.5522 9.38552 10.0521 9.88562C9.55202 10.3857 8.87375 10.6667 8.1665 10.6667C7.45926 10.6667 6.78098 10.3857 6.28089 9.88562C5.78079 9.38552 5.49984 8.70724 5.49984 8C5.49984 7.29276 5.78079 6.61448 6.28089 6.11438C6.78098 5.61428 7.45926 5.33333 8.1665 5.33333V5.33333Z" fill="#FCFCFD"/>
</svg>
