<svg width="24" height="24" viewBox="0 0 24 24" fill="none" xmlns="http://www.w3.org/2000/svg">
<g clip-path="url(#clip0_1536_25171)">
<path d="M5.1999 20.4H1.5999C1.28164 20.4 0.976418 20.2736 0.751374 20.0485C0.526331 19.8235 0.399902 19.5183 0.399902 19.2V7.2C0.399902 6.88174 0.526331 6.57652 0.751374 6.35147C0.976418 6.12643 1.28164 6 1.5999 6H5.1999V1.2C5.1999 0.88174 5.32633 0.576515 5.55137 0.351472C5.77642 0.126428 6.08164 0 6.3999 0H18.3999C18.7182 0 19.0234 0.126428 19.2484 0.351472C19.4735 0.576515 19.5999 0.88174 19.5999 1.2V6H23.1999C23.5182 6 23.8234 6.12643 24.0484 6.35147C24.2735 6.57652 24.3999 6.88174 24.3999 7.2V19.2C24.3999 19.5183 24.2735 19.8235 24.0484 20.0485C23.8234 20.2736 23.5182 20.4 23.1999 20.4H19.5999V22.8C19.5999 23.1183 19.4735 23.4235 19.2484 23.6485C19.0234 23.8736 18.7182 24 18.3999 24H6.3999C6.08164 24 5.77642 23.8736 5.55137 23.6485C5.32633 23.4235 5.1999 23.1183 5.1999 22.8V20.4ZM5.1999 18V16.8C5.1999 16.4817 5.32633 16.1765 5.55137 15.9515C5.77642 15.7264 6.08164 15.6 6.3999 15.6H18.3999C18.7182 15.6 19.0234 15.7264 19.2484 15.9515C19.4735 16.1765 19.5999 16.4817 19.5999 16.8V18H21.9999V8.4H2.7999V18H5.1999ZM7.5999 2.4V6H17.1999V2.4H7.5999ZM7.5999 18V21.6H17.1999V18H7.5999ZM3.9999 9.6H7.5999V12H3.9999V9.6Z" fill="#9757D7"/>
</g>
<defs>
<clipPath id="clip0_1536_25171">
<rect width="24" height="24" fill="white"/>
</clipPath>
</defs>
</svg>
