<svg width="25" height="24" viewBox="0 0 25 24" fill="none" xmlns="http://www.w3.org/2000/svg">
<path d="M10.0764 21.5891H5.30818C4.99029 21.5891 4.68541 21.4628 4.46062 21.238C4.23583 21.0132 4.10955 20.7084 4.10955 20.3905V3.60958C4.10955 3.29168 4.23583 2.9868 4.46062 2.76201C4.68541 2.53723 4.99029 2.41094 5.30818 2.41094H13.6986V6.00684C13.6986 6.96054 14.0775 7.87517 14.7518 8.54953C15.4262 9.22389 16.3408 9.60275 17.2945 9.60275H20.8904V10.8961C21.8617 11.5279 22.6805 12.3676 23.2877 13.3545V8.33219C23.2752 8.22209 23.251 8.11362 23.2158 8.00856V7.90069C23.1582 7.77739 23.0814 7.66409 22.988 7.56507L15.7962 0.373262C15.6972 0.279948 15.5839 0.203064 15.4606 0.145522H15.3527C15.2309 0.0757497 15.0965 0.0309282 14.9572 0.0136719L5.30818 0.0136719C4.35449 0.0136719 3.43986 0.392525 2.7655 1.06689C2.09113 1.74125 1.71228 2.65588 1.71228 3.60958L1.71228 20.3905C1.71228 21.3442 2.09113 22.2588 2.7655 22.9331C3.43986 23.6075 4.35449 23.9864 5.30818 23.9864H12.4568C11.4987 23.3696 10.6863 22.5516 10.0764 21.5891ZM16.0959 4.10102L19.2004 7.20548H17.2945C16.9766 7.20548 16.6718 7.07919 16.447 6.85441C16.2222 6.62962 16.0959 6.32474 16.0959 6.00684V4.10102Z" fill="#3772FF"/>
<path d="M18.7733 12.0139L18.4942 19.424H16.436L16.1395 12.0139H18.7733ZM17.5174 23.0139C17.0756 23.0139 16.7093 22.8963 16.4186 22.6611C16.1395 22.4156 16 22.1139 16 21.7559C16 21.3979 16.1395 21.1013 16.4186 20.8661C16.7093 20.6206 17.0756 20.4979 17.5174 20.4979C17.9477 20.4979 18.3023 20.6206 18.5814 20.8661C18.8605 21.1013 19 21.3979 19 21.7559C19 22.1139 18.8605 22.4156 18.5814 22.6611C18.3023 22.8963 17.9477 23.0139 17.5174 23.0139Z" fill="#3772FF"/>
</svg>
