<svg width="24" height="24" viewBox="0 0 24 24" fill="none" xmlns="http://www.w3.org/2000/svg">
<g clip-path="url(#clip0_92_2438)">
<path d="M2.29271 7.13604C2.36121 8.21154 2.80649 9.26535 3.62168 10.0794C4.1885 10.6471 4.89499 11.0554 5.66991 11.2631C6.44483 11.4707 7.2608 11.4704 8.03558 11.2622L9.30745 10.922L19.7679 21.3813C19.9832 21.5893 20.2716 21.7044 20.571 21.7018C20.8704 21.6992 21.1567 21.5791 21.3684 21.3674C21.5801 21.1557 21.7002 20.8694 21.7028 20.57C21.7054 20.2706 21.5903 19.9822 21.3823 19.7669L10.9218 9.30759L11.2621 8.03457C11.4701 7.25997 11.4703 6.44422 11.2626 5.66952C11.055 4.89482 10.6468 4.18854 10.0793 3.62182C9.29304 2.8347 8.24626 2.36206 7.1359 2.29285L8.53337 3.68804C9.17561 4.33059 9.5363 5.20195 9.53609 6.11044C9.53587 7.01893 9.17477 7.89012 8.53222 8.53237C7.88968 9.17461 7.01831 9.5353 6.10982 9.53509C5.20134 9.53487 4.33014 9.17377 3.6879 8.53122L2.29271 7.13604ZM1.26516 2.88084L5.30229 6.91683C5.51637 7.13106 5.80679 7.25148 6.10966 7.25158C6.41252 7.25169 6.70303 7.13148 6.91726 6.9174C7.13149 6.70332 7.25191 6.4129 7.25201 6.11003C7.25212 5.80717 7.13191 5.51667 6.91783 5.30243L2.8807 1.2653C4.03029 0.449011 5.40368 0.00718774 6.81359 8.69513e-05C8.22349 -0.00701384 9.60127 0.420954 10.759 1.22562C11.9168 2.03029 12.7981 3.1725 13.2829 4.49646C13.7677 5.82042 13.8323 7.26168 13.4679 8.6237L22.9967 18.1525C23.6391 18.7949 24 19.6662 24 20.5747C24 21.4832 23.6391 22.3544 22.9967 22.9968C22.3543 23.6392 21.483 24.0001 20.5745 24.0001C19.6661 24.0001 18.7948 23.6392 18.1524 22.9968L8.6247 13.468C7.26251 13.8327 5.82099 13.7682 4.49678 13.2834C3.17257 12.7987 2.03017 11.9171 1.22543 10.7591C0.42068 9.60116 -0.00722326 8.2231 9.22587e-05 6.81296C0.00740778 5.40282 0.449586 4.02927 1.2663 2.8797L1.26516 2.88084ZM18.9619 20.573L20.5831 18.9631L18.9619 17.3487L17.3418 18.9631L18.9607 20.573H18.9619Z" fill="#777E91"/>
</g>
<defs>
<clipPath id="clip0_92_2438">
<rect width="24" height="24" fill="white"/>
</clipPath>
</defs>
</svg>
