<svg width="23" height="24" viewBox="0 0 23 24" fill="none" xmlns="http://www.w3.org/2000/svg">
<path d="M21.644 21.947H21.6368L19.5872 19.8614C20.0894 19.0465 20.3589 18.1096 20.3663 17.1525C20.3687 16.0047 19.9904 14.8886 19.2908 13.9787C18.5912 13.0689 17.6096 12.4166 16.4997 12.1241C15.3899 11.8317 14.2144 11.9154 13.1572 12.3623C12.1 12.8091 11.2208 13.5939 10.6572 14.5937C10.0936 15.5936 9.8774 16.7521 10.0425 17.8879C10.2075 19.0237 10.7445 20.0728 11.5693 20.8709C12.3942 21.6689 13.4604 22.171 14.601 22.2985C15.7417 22.426 16.8924 22.1717 17.8731 21.5754L19.9348 23.6491C20.1596 23.8738 20.4644 24 20.7822 24C21.1 24 21.4049 23.8738 21.6296 23.6491H21.6368C21.7497 23.5381 21.8394 23.4059 21.9009 23.2601C21.9623 23.1143 21.9943 22.9578 21.995 22.7995C21.9957 22.6413 21.965 22.4845 21.9048 22.3382C21.8445 22.1918 21.7559 22.0589 21.644 21.947ZM15.2673 20.1982C14.6746 20.1982 14.0953 20.0224 13.6025 19.6932C13.1097 19.3639 12.7256 18.8959 12.4988 18.3483C12.272 17.8008 12.2127 17.1983 12.3283 16.617C12.4439 16.0357 12.7293 15.5018 13.1484 15.0827C13.5675 14.6636 14.1014 14.3782 14.6827 14.2626C15.264 14.147 15.8665 14.2063 16.414 14.4331C16.9616 14.6599 17.4296 15.044 17.7589 15.5368C18.0881 16.0296 18.2639 16.6089 18.2639 17.2016C18.2639 17.9963 17.9482 18.7585 17.3862 19.3205C16.8242 19.8825 16.062 20.1982 15.2673 20.1982ZM9.07635 21.5754H4.30818C3.99029 21.5754 3.68541 21.4491 3.46062 21.2243C3.23583 20.9996 3.10955 20.6947 3.10955 20.3768V3.5959C3.10955 3.27801 3.23583 2.97313 3.46062 2.74834C3.68541 2.52355 3.99029 2.39727 4.30818 2.39727H12.6986V5.99317C12.6986 6.94686 13.0775 7.8615 13.7518 8.53586C14.4262 9.21022 15.3408 9.58908 16.2945 9.58908H19.8904V10.8824C20.8617 11.5142 21.6805 12.3539 22.2877 13.3408V8.31852C22.2752 8.20842 22.251 8.09995 22.2158 7.99489V7.88701C22.1582 7.76372 22.0814 7.65042 21.988 7.5514L14.7962 0.35959C14.6972 0.266276 14.5839 0.189392 14.4606 0.13185H14.3527C14.2309 0.0620778 14.0965 0.0172564 13.9572 0L4.30818 0C3.35449 0 2.43986 0.378853 1.7655 1.05322C1.09113 1.72758 0.71228 2.64221 0.71228 3.5959L0.71228 20.3768C0.71228 21.3305 1.09113 22.2451 1.7655 22.9195C2.43986 23.5938 3.35449 23.9727 4.30818 23.9727H11.4568C10.4987 23.356 9.68633 22.5379 9.07635 21.5754V21.5754ZM15.0959 4.08734L18.2004 7.19181H16.2945C15.9766 7.19181 15.6718 7.06552 15.447 6.84073C15.2222 6.61595 15.0959 6.31107 15.0959 5.99317V4.08734Z" fill="#3772FF"/>
</svg>
