<svg width="40" height="40" viewBox="0 0 40 40" fill="none" xmlns="http://www.w3.org/2000/svg">
<rect x="1" y="1" width="38" height="38" rx="19" fill="white"/>
<path d="M21 9.14545C26.5124 9.692 30.8182 14.3436 30.8182 20V21.0909H21V27.6364C21 28.215 21.2299 28.77 21.639 29.1791C22.0482 29.5883 22.6032 29.8182 23.1818 29.8182C23.7605 29.8182 24.3154 29.5883 24.7246 29.1791C25.1338 28.77 25.3636 28.215 25.3636 27.6364V26.5455H27.5455V27.6364C27.5455 28.7937 27.0857 29.9036 26.2674 30.7219C25.449 31.5403 24.3391 32 23.1818 32C22.0245 32 20.9146 31.5403 20.0963 30.7219C19.2779 29.9036 18.8182 28.7937 18.8182 27.6364V21.0909H9V20C9 14.3436 13.3058 9.692 18.8182 9.14545V9.09091C18.8182 8.80158 18.9331 8.5241 19.1377 8.31952C19.3423 8.11493 19.6198 8 19.9091 8C20.1984 8 20.4759 8.11493 20.6805 8.31952C20.8851 8.5241 21 8.80158 21 9.09091V9.14545ZM28.5687 18.9091C28.3025 16.8003 27.2759 14.861 25.6816 13.4553C24.0872 12.0495 22.0347 11.2739 19.9091 11.2739C17.7835 11.2739 15.731 12.0495 14.1366 13.4553C12.5423 14.861 11.5157 16.8003 11.2495 18.9091H28.5687Z" fill="#EF466F"/>
<rect x="1" y="1" width="38" height="38" rx="19" stroke="#FFD166" stroke-width="2"/>
</svg>
