<svg width="40" height="40" viewBox="0 0 40 40" fill="none" xmlns="http://www.w3.org/2000/svg">
<rect x="1" y="1" width="38" height="38" rx="19" fill="white"/>
<g clip-path="url(#clip0_105_3172)">
<path d="M10.2928 15.136C10.3613 16.2115 10.8066 17.2654 11.6218 18.0794C12.1886 18.6471 12.8951 19.0554 13.67 19.2631C14.4449 19.4707 15.2609 19.4704 16.0357 19.2622L17.3075 18.922L27.768 29.3813C27.9833 29.5893 28.2717 29.7044 28.5711 29.7018C28.8704 29.6992 29.1568 29.5791 29.3685 29.3674C29.5802 29.1557 29.7002 28.8694 29.7028 28.57C29.7054 28.2706 29.5904 27.9822 29.3824 27.7669L18.9219 17.3076L19.2622 16.0346C19.4702 15.26 19.4704 14.4442 19.2627 13.6695C19.055 12.8948 18.6469 12.1885 18.0793 11.6218C17.2931 10.8347 16.2463 10.3621 15.136 10.2929L16.5334 11.688C17.1757 12.3306 17.5364 13.202 17.5362 14.1104C17.536 15.0189 17.1749 15.8901 16.5323 16.5324C15.8898 17.1746 15.0184 17.5353 14.1099 17.5351C13.2014 17.5349 12.3302 17.1738 11.688 16.5312L10.2928 15.136ZM9.26524 10.8808L13.3024 14.9168C13.5165 15.1311 13.8069 15.2515 14.1097 15.2516C14.4126 15.2517 14.7031 15.1315 14.9173 14.9174C15.1316 14.7033 15.252 14.4129 15.2521 14.11C15.2522 13.8072 15.132 13.5167 14.9179 13.3024L10.8808 9.2653C12.0304 8.44901 13.4038 8.00719 14.8137 8.00009C16.2236 7.99299 17.6013 8.42095 18.7591 9.22562C19.9168 10.0303 20.7982 11.1725 21.283 12.4965C21.7678 13.8204 21.8324 15.2617 21.468 16.6237L30.9968 26.1525C31.6392 26.7949 32.0001 27.6662 32.0001 28.5747C32.0001 29.4832 31.6392 30.3544 30.9968 30.9968C30.3544 31.6392 29.4831 32.0001 28.5746 32.0001C27.6661 32.0001 26.7949 31.6392 26.1525 30.9968L16.6248 21.468C15.2626 21.8327 13.8211 21.7682 12.4969 21.2834C11.1726 20.7987 10.0302 19.9171 9.2255 18.7591C8.42076 17.6012 7.99285 16.2231 8.00017 14.813C8.00748 13.4028 8.44966 12.0293 9.26638 10.8797L9.26524 10.8808ZM26.9619 28.573L28.5832 26.9631L26.9619 25.3487L25.3418 26.9631L26.9608 28.573H26.9619Z" fill="#9757D7"/>
</g>
<rect x="1" y="1" width="38" height="38" rx="19" stroke="#E4D7CF" stroke-width="2"/>
<defs>
<clipPath id="clip0_105_3172">
<rect width="24" height="24" fill="white" transform="translate(8 8)"/>
</clipPath>
</defs>
</svg>
