<svg width="40" height="40" viewBox="0 0 40 40" fill="none" xmlns="http://www.w3.org/2000/svg">
<rect x="1" y="1" width="38" height="38" rx="19" fill="white"/>
<path d="M25.9583 10.8333H25.5V10.375C25.5 10.0103 25.3551 9.66059 25.0973 9.40273C24.8394 9.14487 24.4897 9 24.125 9V9C23.7603 9 23.4106 9.14487 23.1527 9.40273C22.8949 9.66059 22.75 10.0103 22.75 10.375V10.8333H17.25V10.375C17.25 10.0103 17.1051 9.66059 16.8473 9.40273C16.5894 9.14487 16.2397 9 15.875 9V9C15.5103 9 15.1606 9.14487 14.9027 9.40273C14.6449 9.66059 14.5 10.0103 14.5 10.375V10.8333H14.0417C12.7045 10.8333 11.4222 11.3645 10.4767 12.31C9.53117 13.2555 9 14.5379 9 15.875V25.9583C9 27.2955 9.53117 28.5778 10.4767 29.5233C11.4222 30.4688 12.7045 31 14.0417 31H25.9583C27.2955 31 28.5778 30.4688 29.5233 29.5233C30.4688 28.5778 31 27.2955 31 25.9583V15.875C31 14.5379 30.4688 13.2555 29.5233 12.31C28.5778 11.3645 27.2955 10.8333 25.9583 10.8333ZM25.9583 28.25H14.0417C13.4339 28.25 12.851 28.0086 12.4212 27.5788C11.9914 27.149 11.75 26.5661 11.75 25.9583V18.1667H28.25V25.9583C28.25 26.5661 28.0086 27.149 27.5788 27.5788C27.149 28.0086 26.5661 28.25 25.9583 28.25Z" fill="#45B36B"/>
<rect x="1" y="1" width="38" height="38" rx="19" stroke="#8DF0AF" stroke-width="2"/>
</svg>
