<svg width="40" height="40" viewBox="0 0 40 40" fill="none" xmlns="http://www.w3.org/2000/svg">
<rect x="1" y="1" width="38" height="38" rx="19" fill="white"/>
<g clip-path="url(#clip0_105_3165)">
<path d="M19.4524 22.0187C15.1907 22.4039 11.9438 26.005 12.0004 30.2837V30.5007C12.0004 31.3291 12.672 32.0007 13.5004 32.0007C14.3288 32.0007 15.0004 31.3291 15.0004 30.5007V30.2237C14.9553 27.5966 16.894 25.3563 19.5004 25.0237C22.2516 24.7509 24.7031 26.76 24.976 29.5113C24.9921 29.6739 25.0002 29.8373 25.0004 30.0007V30.5007C25.0004 31.3291 25.672 32.0007 26.5004 32.0007C27.3288 32.0007 28.0004 31.3291 28.0004 30.5007V30.0007C27.9955 25.5774 24.4058 21.9956 19.9825 22.0005C19.8057 22.0007 19.6289 22.0068 19.4524 22.0187Z" fill="#3772FF"/>
<path d="M20.0004 20C23.3141 20 26.0004 17.3137 26.0004 14C26.0004 10.6863 23.3141 8 20.0004 8C16.6867 8 14.0004 10.6863 14.0004 14C14.0037 17.3123 16.6881 19.9967 20.0004 20ZM20.0004 11C21.6573 11 23.0004 12.3432 23.0004 14C23.0004 15.6568 21.6573 17 20.0004 17C18.3436 17 17.0004 15.6568 17.0004 14C17.0004 12.3432 18.3436 11 20.0004 11Z" fill="#3772FF"/>
</g>
<rect x="1" y="1" width="38" height="38" rx="19" stroke="#4BC9F0" stroke-width="2"/>
<defs>
<clipPath id="clip0_105_3165">
<rect width="24" height="24" fill="white" transform="translate(8 8)"/>
</clipPath>
</defs>
</svg>
