<svg width="24" height="24" viewBox="0 0 24 24" fill="none" xmlns="http://www.w3.org/2000/svg">
<g clip-path="url(#clip0_7_1081)">
<path d="M13.0939 16.5706L15.2376 15.3328L16.3292 17.2233L14.1854 18.4611L16.3292 19.6989L15.2376 21.5894L13.0939 20.3516V22.8272H10.9108V20.3516L8.76704 21.5894L7.67551 19.6989L9.81928 18.4611L7.67551 17.2233L8.76704 15.3328L10.9108 16.5706V14.095H13.0939V16.5706ZM17.46 18.4611V16.278H18.0058C18.6356 16.278 19.2557 16.1221 19.8107 15.8245C20.3658 15.5268 20.8387 15.0965 21.1872 14.5719C21.5358 14.0473 21.7492 13.4446 21.8086 12.8175C21.8679 12.1905 21.7713 11.5585 21.5273 10.9778C21.2833 10.3971 20.8995 9.88579 20.4101 9.48929C19.9208 9.09279 19.3409 8.82345 18.7223 8.70523C18.1036 8.58701 17.4653 8.62358 16.8642 8.8117C16.2631 8.99981 15.7178 9.33363 15.2769 9.78344V9.72886C15.2765 8.52829 14.9461 7.35093 14.3217 6.32546C13.6974 5.29998 12.8032 4.46586 11.7369 3.91424C10.6705 3.36262 9.47305 3.11473 8.27534 3.19767C7.07763 3.2806 5.92576 3.69117 4.94562 4.3845C3.96548 5.07782 3.19478 6.02723 2.71775 7.12897C2.24071 8.2307 2.0757 9.44237 2.24075 10.6315C2.4058 11.8207 2.89455 12.9416 3.6536 13.8718C4.41265 14.802 5.41278 15.5056 6.54469 15.9058V18.186C5.097 17.8114 3.76978 17.0713 2.69017 16.0366C1.61056 15.0019 0.814753 13.7074 0.37899 12.2769C-0.0567723 10.8464 -0.117886 9.32802 0.201504 7.86715C0.520894 6.40629 1.21009 5.05193 2.20305 3.93383C3.19601 2.81572 4.45946 1.97135 5.87236 1.4816C7.28525 0.991854 8.80024 0.873149 10.2722 1.13686C11.7441 1.40057 13.1237 2.03785 14.2786 2.98766C15.4336 3.93746 16.3254 5.16795 16.8684 6.56124C17.6893 6.40418 18.5339 6.42024 19.3482 6.60841C20.1625 6.79658 20.9286 7.1527 21.5973 7.65398C22.2661 8.15526 22.8228 8.79065 23.2318 9.51948C23.6409 10.2483 23.8932 11.0545 23.9728 11.8865C24.0523 12.7185 23.9572 13.5579 23.6936 14.351C23.43 15.1441 23.0038 15.8735 22.4421 16.4924C21.8804 17.1112 21.1957 17.606 20.4317 17.945C19.6678 18.2841 18.8415 18.4598 18.0058 18.4611L17.46 18.4622V18.4611Z" fill="#777E91"/>
</g>
<defs>
<clipPath id="clip0_7_1081">
<rect width="24" height="24" fill="white"/>
</clipPath>
</defs>
</svg>
