<svg width="83" height="9" viewBox="0 0 83 9" fill="none" xmlns="http://www.w3.org/2000/svg">
<path d="M1 4C0.723858 4 0.5 4.22386 0.5 4.5C0.5 4.77614 0.723858 5 1 5V4ZM82.3536 4.85355C82.5488 4.65829 82.5488 4.34171 82.3536 4.14645L79.1716 0.964466C78.9763 0.769204 78.6597 0.769204 78.4645 0.964466C78.2692 1.15973 78.2692 1.47631 78.4645 1.67157L81.2929 4.5L78.4645 7.32843C78.2692 7.52369 78.2692 7.84027 78.4645 8.03553C78.6597 8.2308 78.9763 8.2308 79.1716 8.03553L82.3536 4.85355ZM1 5H82V4H1V5Z" fill="#B1B5C4"/>
</svg>
