<svg width="32" height="32" viewBox="0 0 32 32" fill="none" xmlns="http://www.w3.org/2000/svg">
<path fill-rule="evenodd" clip-rule="evenodd" d="M18.3896 11.3031C18.8534 10.875 19.5765 10.9039 20.0046 11.3677L23.6969 15.3676C24.101 15.8054 24.101 16.4802 23.6969 16.918L20.0046 20.918C19.5765 21.3818 18.8535 21.4108 18.3897 20.9826C17.9259 20.5545 17.8969 19.8315 18.3251 19.3677L20.2469 17.2857L9.14286 17.2857C8.51167 17.2857 8 16.774 8 16.1428C8 15.5116 8.51167 15 9.14286 15L20.2469 15L18.3251 12.918C17.8969 12.4543 17.9259 11.7312 18.3896 11.3031Z" fill="#3772FF"/>
<rect x="1.5" y="1.5" width="29" height="29" rx="14.5" stroke="#3772FF" stroke-width="3"/>
</svg>
