<svg width="24" height="24" viewBox="0 0 24 24" fill="none" xmlns="http://www.w3.org/2000/svg">
<path d="M13 1.14545C18.5124 1.692 22.8182 6.34364 22.8182 12V13.0909H13V19.6364C13 20.215 13.2299 20.77 13.639 21.1791C14.0482 21.5883 14.6032 21.8182 15.1818 21.8182C15.7605 21.8182 16.3154 21.5883 16.7246 21.1791C17.1338 20.77 17.3636 20.215 17.3636 19.6364V18.5455H19.5455V19.6364C19.5455 20.7937 19.0857 21.9036 18.2674 22.7219C17.449 23.5403 16.3391 24 15.1818 24C14.0245 24 12.9146 23.5403 12.0963 22.7219C11.2779 21.9036 10.8182 20.7937 10.8182 19.6364V13.0909H1V12C1 6.34364 5.30582 1.692 10.8182 1.14545V1.09091C10.8182 0.801582 10.9331 0.524105 11.1377 0.31952C11.3423 0.114935 11.6198 0 11.9091 0C12.1984 0 12.4759 0.114935 12.6805 0.31952C12.8851 0.524105 13 0.801582 13 1.09091V1.14545ZM20.5687 10.9091C20.3025 8.80025 19.2759 6.86103 17.6816 5.45528C16.0872 4.04954 14.0347 3.2739 11.9091 3.2739C9.78351 3.2739 7.73098 4.04954 6.13663 5.45528C4.54227 6.86103 3.51567 8.80025 3.24945 10.9091H20.5687Z" fill="#777E91"/>
</svg>
