<svg width="24" height="24" viewBox="0 0 24 24" fill="none" xmlns="http://www.w3.org/2000/svg">
<g clip-path="url(#clip0_7_1085)">
<path d="M10.2006 17.9985H2.40015V15.5984H10.2006C10.9672 15.5986 11.719 15.8087 12.3747 16.2057C13.0304 16.6028 13.565 17.1717 13.9205 17.8508C14.2759 18.53 14.4388 19.2934 14.3914 20.0585C14.3439 20.8236 14.088 21.5611 13.6514 22.1911C13.2148 22.8212 12.6141 23.3197 11.9143 23.6327C11.2146 23.9457 10.4426 24.0613 9.68187 23.9669C8.92116 23.8725 8.20078 23.5717 7.5988 23.0972C6.99682 22.6226 6.53618 21.9924 6.26679 21.2747L8.51453 20.4311C8.62995 20.7386 8.82734 21.0088 9.08532 21.2122C9.3433 21.4156 9.65202 21.5445 9.97804 21.585C10.3041 21.6255 10.6349 21.576 10.9348 21.4419C11.2347 21.3077 11.4922 21.0941 11.6793 20.8241C11.8665 20.5541 11.9762 20.238 11.9965 19.9101C12.0169 19.5822 11.9471 19.255 11.7948 18.964C11.6425 18.6729 11.4134 18.4291 11.1324 18.2589C10.8514 18.0887 10.5292 17.9987 10.2006 17.9985ZM3.60022 10.7981H19.8012C20.5678 10.7983 21.3196 11.0084 21.9753 11.4054C22.631 11.8025 23.1656 12.3714 23.5211 13.0505C23.8765 13.7297 24.0394 14.4931 23.992 15.2582C23.9445 16.0233 23.6886 16.7608 23.252 17.3908C22.8154 18.0209 22.2147 18.5194 21.5149 18.8324C20.8152 19.1454 20.0432 19.261 19.2825 19.1666C18.5218 19.0722 17.8014 18.7714 17.1994 18.2969C16.5974 17.8223 16.1368 17.1921 15.8674 16.4744L18.1151 15.6308C18.2305 15.9383 18.4279 16.2085 18.6859 16.4119C18.9439 16.6153 19.2526 16.7442 19.5786 16.7847C19.9047 16.8252 20.2355 16.7757 20.5354 16.6416C20.8353 16.5074 21.0928 16.2938 21.2799 16.0238C21.4671 15.7538 21.5768 15.4377 21.5971 15.1098C21.6175 14.7819 21.5477 14.4547 21.3954 14.1637C21.2431 13.8726 21.014 13.6288 20.733 13.4586C20.452 13.2884 20.1298 13.1984 19.8012 13.1982H3.60022C2.64539 13.1982 1.72965 12.8189 1.05448 12.1437C0.379308 11.4686 0 10.5528 0 9.59799C0 8.64315 0.379308 7.72742 1.05448 7.05225C1.72965 6.37708 2.64539 5.99777 3.60022 5.99777H13.8009C14.1294 5.99763 14.4516 5.90759 14.7326 5.73741C15.0136 5.56723 15.2427 5.32339 15.395 5.03232C15.5473 4.74125 15.6171 4.41404 15.5968 4.08614C15.5764 3.75825 15.4667 3.44218 15.2796 3.17218C15.0924 2.90218 14.8349 2.68854 14.5351 2.55441C14.2352 2.42028 13.9043 2.37078 13.5783 2.41127C13.2522 2.45176 12.9435 2.58069 12.6855 2.7841C12.4276 2.98751 12.2302 3.25764 12.1148 3.56522L9.86702 2.72276C10.2132 1.80207 10.8714 1.03203 11.7271 0.5468C12.5827 0.0615736 13.5814 -0.108074 14.5493 0.0674173C15.5171 0.242909 16.3927 0.752413 17.0235 1.50716C17.6543 2.2619 18.0002 3.21403 18.0011 4.19766C18.0011 5.31163 17.5586 6.37999 16.7709 7.16769C15.9832 7.95539 14.9148 8.39792 13.8009 8.39792H3.60022C3.28194 8.39792 2.9767 8.52435 2.75164 8.74941C2.52659 8.97447 2.40015 9.27971 2.40015 9.59799C2.40015 9.91627 2.52659 10.2215 2.75164 10.4466C2.9767 10.6716 3.28194 10.7981 3.60022 10.7981Z" fill="#B0BEC5"/>
</g>
<defs>
<clipPath id="clip0_7_1085">
<rect width="24" height="24" fill="white"/>
</clipPath>
</defs>
</svg>
